<?xml version="1.0" encoding="utf-8"?>
<!-- Generator: Adobe Illustrator 18.0.0, SVG Export Plug-In . SVG Version: 6.00 Build 0)  -->
<!DOCTYPE svg PUBLIC "-//W3C//DTD SVG 1.1//EN" "http://www.w3.org/Graphics/SVG/1.1/DTD/svg11.dtd">
<svg version="1.1" id="Layer_1" xmlns="http://www.w3.org/2000/svg" xmlns:xlink="http://www.w3.org/1999/xlink" x="0px" y="0px"
	 viewBox="0 0 44 44" enable-background="new 0 0 44 44" xml:space="preserve">
<g>
	<defs>
		<rect id="SVGID_1_" x="-31" y="-33" width="108.2" height="108.2"/>
	</defs>
	<clipPath id="SVGID_2_">
		<use xlink:href="#SVGID_1_"  overflow="visible"/>
	</clipPath>
	<path clip-path="url(#SVGID_2_)" fill-rule="evenodd" clip-rule="evenodd" fill="#FFFFFF" d="M40.6,21.8c1.3-0.8,2.6-1.2,2.1-3.2
		c-0.4-2-1.8-1.8-3.2-2.1c-3.7-0.7-5.1-3-3.7-6.7C36.4,8.5,37,7.3,35.5,6C34,4.6,33,5.5,31.7,6.3c-3.2,2.2-5.6,1.4-7-2.3
		c-0.6-1.5-0.7-3.1-3-3c-2.1,0.1-2.1,1.6-2.6,2.9c-1.3,3.7-3.7,4.5-7,2.5C11,5.7,10.1,4.5,8.5,5.9C7,7.2,7.4,8.3,7.9,9.7
		C9.5,13.7,8,16,4,16.5c-1.6,0.2-2.7,0.6-3,2.4c-0.3,1.8,0.9,2.2,2.1,2.8c3.6,2,4,4.6,1.4,7.8c-0.8,0.9-1.9,1.6-1,3.3
		c0.9,1.7,2.1,1.8,3.6,1.4c4.4-1,6.3,1,6.1,5.4c-0.1,1.5,0.2,2.4,1.7,2.9c1.4,0.5,2,0,2.8-1c2.7-3.7,5.6-3.7,8.4-0.1
		c0.7,0.9,1.3,1.7,2.7,1.2c1.4-0.6,2-1.3,1.9-2.9c-0.4-4.8,2.1-6.3,5-5.9c2.8,0.7,3.7,0.4,4.5-1c0.9-1.6,0-2.4-0.9-3.3
		C36.5,26.5,37.2,23.9,40.6,21.8 M22.1,34.3c-6.3,0.1-11.7-5.2-11.7-11.6c-0.1-6.5,5.1-11.8,11.5-11.8c6.4,0,11.5,5.4,11.5,11.8
		C33.3,28.9,28.3,34.1,22.1,34.3"/>
</g>
</svg>
