<svg xmlns="http://www.w3.org/2000/svg" xmlns:xlink="http://www.w3.org/1999/xlink" width="962.953" height="889.457"><switch><g><defs><circle id="a" cx="488.384" cy="443.945" r="365.205"/></defs><clipPath id="b"><use xlink:href="#a" overflow="visible"/></clipPath><g clip-path="url(#b)"><linearGradient id="c" gradientUnits="userSpaceOnUse" x1="344.362" y1="1085.427" x2="344.362" y2="308.348" gradientTransform="matrix(1 0 0 -1 144 1094.456)"><stop offset="0" stop-color="#e9fffc"/><stop offset="1" stop-color="#2abaff"/></linearGradient><circle fill="url(#c)" cx="488.362" cy="456.147" r="407.768"/></g><g clip-path="url(#b)"><linearGradient id="d" gradientUnits="userSpaceOnUse" x1="344.362" y1="1085.427" x2="344.362" y2="308.348" gradientTransform="matrix(1 0 0 -1 144 1094.456)"><stop offset="0" stop-color="#e9fffc"/><stop offset="1" stop-color="#2abaff"/></linearGradient><circle fill="url(#d)" cx="488.362" cy="456.147" r="407.768"/></g><g clip-path="url(#b)"><linearGradient id="e" gradientUnits="userSpaceOnUse" x1="344.362" y1="1085.427" x2="344.362" y2="308.348" gradientTransform="matrix(1 0 0 -1 144 1094.456)"><stop offset="0" stop-color="#e9fffc"/><stop offset="1" stop-color="#2abaff"/></linearGradient><circle fill="url(#e)" cx="488.362" cy="456.147" r="407.768"/></g><g clip-path="url(#b)"><linearGradient id="f" gradientUnits="userSpaceOnUse" x1="344.362" y1="1085.427" x2="344.362" y2="308.348" gradientTransform="matrix(1 0 0 -1 144 1094.456)"><stop offset="0" stop-color="#e9fffc"/><stop offset="1" stop-color="#2abaff"/></linearGradient><circle fill="url(#f)" cx="488.362" cy="456.147" r="407.768"/></g><g clip-path="url(#b)"><defs><circle id="g" cx="488.362" cy="456.147" r="407.768"/></defs><clipPath id="h"><use xlink:href="#g" overflow="visible"/></clipPath><ellipse clip-path="url(#h)" fill="#1B9AC1" cx="5.455" cy="24.88" rx="39.638" ry="15.417"/></g><g clip-path="url(#b)"><defs><circle id="i" cx="488.362" cy="456.147" r="407.768"/></defs><clipPath id="j"><use xlink:href="#i" overflow="visible"/></clipPath><g clip-path="url(#j)"><path fill="#D8D8D8" d="M884.83 322.457l-1.771-1.239a98.365 98.365 0 00-4.727-3.051c-.987-.602-2.082-1.2-3.231-1.828a51.379 51.379 0 00-3.694-1.749c-1.287-.577-2.667-.997-4.052-1.4a22.29 22.29 0 00-4.248-.701c-1.416-.038-2.828.023-4.161.364-.342.048-.656.185-.981.288-.317.113-.658.178-.961.326-.606.299-1.247.518-1.793.907-.283.176-.567.35-.846.522-.26.202-.521.402-.776.601-.257.201-.526.386-.77.594l-.689.665-.676.65c-.203.235-.402.467-.598.697-.387.464-.82.87-1.132 1.348-.664.921-1.314 1.752-1.791 2.565-.499.795-.968 1.482-1.279 2.088-.67 1.189-1.091 1.87-1.091 1.87s.166-.768.525-2.11c.159-.679.438-1.475.792-2.38.308-.928.793-1.918 1.354-2.996.251-.556.635-1.066.975-1.635.176-.281.362-.56.557-.844.218-.267.443-.537.667-.812l.691-.836c.251-.268.53-.52.801-.787.272-.262.546-.536.846-.783l.96-.695a14.286 14.286 0 014.462-2.141c1.64-.493 3.378-.585 5.078-.548a21.87 21.87 0 014.914.91 27.359 27.359 0 014.372 1.816c1.37.67 2.598 1.472 3.74 2.245a34.598 34.598 0 013.068 2.358c3.648 3.095 5.465 5.721 5.465 5.721z"/></g></g><g clip-path="url(#b)"><defs><circle id="k" cx="488.362" cy="456.147" r="407.768"/></defs><clipPath id="l"><use xlink:href="#k" overflow="visible"/></clipPath><circle clip-path="url(#l)" cx="485.803" cy="749.402" r="144.059"/><linearGradient id="m" gradientUnits="userSpaceOnUse" x1="214.443" y1="471.485" x2="469.642" y2="216.285" gradientTransform="matrix(1 0 0 -1 144 1094.456)"><stop offset="0" stop-color="#fff"/><stop offset=".047" stop-color="#f9f9f9"/><stop offset=".108" stop-color="#e9e9e9"/><stop offset=".177" stop-color="#cecece"/><stop offset=".252" stop-color="#a8a8a8"/><stop offset=".331" stop-color="#777"/><stop offset=".413" stop-color="#3d3d3d"/><stop offset=".49"/><stop offset=".549" stop-color="#2b2b2b"/><stop offset=".639" stop-color="#656565"/><stop offset=".726" stop-color="#969696"/><stop offset=".808" stop-color="#bcbcbc"/><stop offset=".883" stop-color="#d7d7d7"/><stop offset=".949" stop-color="#e7e7e7"/><stop offset="1" stop-color="#ededed"/></linearGradient><circle opacity=".3" clip-path="url(#l)" fill="url(#m)" cx="484.873" cy="749.402" r="137.616"/><circle clip-path="url(#l)" fill="#BFBB3C" cx="485.803" cy="749.402" r="54.161"/><circle clip-path="url(#l)" fill="#FFF" cx="485.803" cy="749.402" r="5.07"/><circle clip-path="url(#l)" fill="none" stroke="#000" stroke-width="1.117" stroke-miterlimit="10" cx="485.803" cy="749.401" r="71.835"/><circle clip-path="url(#l)" fill="none" stroke="#000" stroke-width="1.117" stroke-miterlimit="10" cx="485.803" cy="749.402" r="91.472"/><circle clip-path="url(#l)" fill="none" stroke="#000" stroke-width="1.117" stroke-miterlimit="10" cx="485.803" cy="749.402" r="106.746"/><circle clip-path="url(#l)" fill="none" stroke="#000" stroke-width="1.117" stroke-miterlimit="10" cx="485.803" cy="749.402" r="122.957"/><g clip-path="url(#l)"><path d="M464.119 769.31c7.242-2.152 14.426.498 16.042 5.927 1.616 5.431-2.944 11.587-10.186 13.739-7.243 2.158-14.426-.497-16.042-5.928-1.617-5.429 2.943-11.579 10.186-13.738z"/><path fill="none" stroke="#000" stroke-width="2.751" stroke-miterlimit="10" d="M478.604 775.793l-14.428-48.505s20.876-3.316 36.761-20.418l14.422 48.497"/><path d="M517.003 754.877c1.619 5.431-2.943 11.586-10.192 13.739-7.24 2.159-14.424-.497-16.039-5.934-1.612-5.431 2.948-11.586 10.19-13.746 7.245-2.139 14.419.512 16.041 5.941zM468.561 742.042s21.112-4.037 37.154-19.085l-4.783-16.094s-11.39 14.217-36.76 20.425l4.389 14.754z"/></g><circle clip-path="url(#l)" fill="none" stroke="#000" stroke-width="4.466" stroke-miterlimit="10" cx="485.803" cy="749.402" r="54.24"/></g><g clip-path="url(#b)"><defs><circle id="n" cx="488.362" cy="456.147" r="407.768"/></defs><clipPath id="o"><use xlink:href="#n" overflow="visible"/></clipPath><path clip-path="url(#o)" d="M367.957 437.772c7.214 52.135-8.945 111.949-36.091 133.591-27.146 21.642-55.001-3.08-62.216-55.217-7.213-52.136 8.944-111.946 36.091-133.59 27.145-21.642 55.002 3.078 62.216 55.216z"/><linearGradient id="p" gradientUnits="userSpaceOnUse" x1="52.77" y1="781.235" x2="179.921" y2="654.084" gradientTransform="matrix(.6848 -.546 -.182 -1.3152 369.933 1485.052)"><stop offset="0" stop-color="#fff"/><stop offset=".047" stop-color="#f9f9f9"/><stop offset=".108" stop-color="#e9e9e9"/><stop offset=".177" stop-color="#cecece"/><stop offset=".252" stop-color="#a8a8a8"/><stop offset=".331" stop-color="#777"/><stop offset=".413" stop-color="#3d3d3d"/><stop offset=".49"/><stop offset=".549" stop-color="#2b2b2b"/><stop offset=".639" stop-color="#656565"/><stop offset=".726" stop-color="#969696"/><stop offset=".808" stop-color="#bcbcbc"/><stop offset=".883" stop-color="#d7d7d7"/><stop offset=".949" stop-color="#e7e7e7"/><stop offset="1" stop-color="#ededed"/></linearGradient><path opacity=".3" clip-path="url(#o)" fill="url(#p)" d="M365.441 439.779c6.891 49.804-8.544 106.939-34.476 127.614-25.934 20.677-52.541-2.94-59.434-52.745-6.892-49.804 8.543-106.941 34.477-127.617 25.933-20.677 52.542 2.941 59.433 52.748z"/><path clip-path="url(#o)" fill="#E07C22" d="M337.284 462.227c2.713 19.603-3.361 42.087-13.569 50.223-10.206 8.139-20.679-1.156-23.392-20.757-2.711-19.603 3.364-42.09 13.569-50.227 10.207-8.136 20.68 1.158 23.392 20.761z"/><path clip-path="url(#o)" fill="#FFF" d="M317.074 478.338c.254 1.834 1.235 2.706 2.191 1.943.954-.761 1.522-2.868 1.27-4.701-.255-1.834-1.234-2.705-2.19-1.944-.956.765-1.525 2.868-1.271 4.702z"/><path clip-path="url(#o)" fill="none" stroke="#000" stroke-width=".556" stroke-miterlimit="10" d="M343.314 457.417c3.599 26-4.458 55.822-17.996 66.614-13.537 10.793-27.426-1.533-31.024-27.532-3.598-25.996 4.46-55.823 17.997-66.616 13.537-10.791 27.426 1.538 31.023 27.534z"/><path clip-path="url(#o)" fill="none" stroke="#000" stroke-width=".556" stroke-miterlimit="10" d="M350.014 452.076c4.582 33.104-5.68 71.081-22.915 84.825-17.238 13.742-34.924-1.954-39.504-35.059-4.582-33.105 5.678-71.083 22.916-84.826 17.236-13.742 34.923 1.955 39.503 35.06z"/><path clip-path="url(#o)" fill="none" stroke="#000" stroke-width=".556" stroke-miterlimit="10" d="M355.225 447.921c5.346 38.635-6.627 82.951-26.742 98.988-20.116 16.036-40.755-2.278-46.101-40.912-5.345-38.635 6.626-82.954 26.743-98.992 20.115-16.033 40.756 2.285 46.1 40.916z"/><path clip-path="url(#o)" fill="none" stroke="#000" stroke-width=".556" stroke-miterlimit="10" d="M360.757 443.512c6.158 44.5-7.634 95.552-30.803 114.022-23.17 18.471-46.945-2.63-53.103-47.128-6.158-44.501 7.634-95.549 30.804-114.023 23.171-18.469 46.944 2.629 53.102 47.129z"/><g clip-path="url(#o)"><path d="M321.79 495.263c-.464 4.543-3.244 7.891-6.206 7.453-2.962-.438-4.988-4.476-4.528-9.027.464-4.551 3.24-7.886 6.206-7.455 2.962.438 4.988 4.477 4.528 9.029z"/><path fill="none" stroke="#000" stroke-width="1.555" stroke-miterlimit="10" d="M321.118 495.159l4.128-40.626"/><path d="M324.625 453.965s4.676-1.062 8.017 7.442l-1.366 13.477s-2.313-8.786-7.91-8.56l1.259-12.359z"/></g><path clip-path="url(#o)" fill="none" stroke="#000" stroke-width="2.225" stroke-miterlimit="10" d="M337.31 462.206c2.716 19.631-3.368 42.146-13.588 50.295-10.22 8.149-20.708-1.156-23.425-20.785-2.716-19.631 3.368-42.149 13.589-50.298 10.221-8.148 20.708 1.158 23.424 20.788z"/></g><g clip-path="url(#b)"><defs><circle id="q" cx="488.362" cy="456.147" r="407.768"/></defs><clipPath id="r"><use xlink:href="#q" overflow="visible"/></clipPath><path clip-path="url(#r)" d="M593.577 440.391c-7.214 52.135 8.945 111.948 36.092 133.588 27.145 21.645 55-3.078 62.215-55.214 7.214-52.137-8.944-111.946-36.09-133.591-27.147-21.641-55.003 3.08-62.217 55.217z"/></g><g clip-path="url(#b)"><defs><circle id="s" cx="488.362" cy="456.147" r="407.768"/></defs><clipPath id="t"><use xlink:href="#s" overflow="visible"/></clipPath><linearGradient id="u" gradientUnits="userSpaceOnUse" x1="598.707" y1="552.601" x2="725.858" y2="425.45" gradientTransform="matrix(-.6848 -.546 .182 -1.3152 1007.068 1485.052)"><stop offset="0" stop-color="#fff"/><stop offset=".047" stop-color="#f9f9f9"/><stop offset=".108" stop-color="#e9e9e9"/><stop offset=".177" stop-color="#cecece"/><stop offset=".252" stop-color="#a8a8a8"/><stop offset=".331" stop-color="#777"/><stop offset=".413" stop-color="#3d3d3d"/><stop offset=".49"/><stop offset="1" stop-color="#ededed"/></linearGradient><path opacity=".3" clip-path="url(#t)" fill="url(#u)" d="M596.093 442.397c-6.891 49.805 8.542 106.94 34.477 127.613 25.933 20.679 52.54-2.941 59.431-52.745 6.894-49.804-8.542-106.94-34.475-127.616s-52.541 2.941-59.433 52.748z"/></g><g clip-path="url(#b)"><defs><circle id="v" cx="488.362" cy="456.147" r="407.768"/></defs><clipPath id="w"><use xlink:href="#v" overflow="visible"/></clipPath><path clip-path="url(#w)" fill="#DD4224" d="M624.25 464.846c-2.714 19.601 3.362 42.084 13.568 50.221 10.206 8.139 20.678-1.156 23.391-20.757s-3.362-42.089-13.568-50.226c-10.207-8.137-20.68 1.159-23.391 20.762z"/></g><g clip-path="url(#b)"><defs><circle id="x" cx="488.362" cy="456.147" r="407.768"/></defs><clipPath id="y"><use xlink:href="#x" overflow="visible"/></clipPath><path clip-path="url(#y)" fill="#FFF" d="M644.458 480.958c-.252 1.834-1.231 2.706-2.188 1.943-.953-.762-1.522-2.867-1.27-4.702.253-1.834 1.234-2.703 2.189-1.942.958.762 1.527 2.867 1.269 4.701z"/></g><g clip-path="url(#b)"><defs><circle id="z" cx="488.362" cy="456.147" r="407.768"/></defs><clipPath id="A"><use xlink:href="#z" overflow="visible"/></clipPath><path clip-path="url(#A)" fill="none" stroke="#000" stroke-width=".556" stroke-miterlimit="10" d="M618.219 460.038c-3.599 25.999 4.46 55.82 17.995 66.613 13.537 10.793 27.426-1.533 31.024-27.532 3.598-25.996-4.461-55.823-17.996-66.615-13.537-10.793-27.424 1.538-31.023 27.534z"/></g><g clip-path="url(#b)"><defs><circle id="B" cx="488.362" cy="456.147" r="407.768"/></defs><clipPath id="C"><use xlink:href="#B" overflow="visible"/></clipPath><path clip-path="url(#C)" fill="none" stroke="#000" stroke-width=".556" stroke-miterlimit="10" d="M611.518 454.695c-4.579 33.104 5.681 71.082 22.917 84.825 17.237 13.743 34.924-1.955 39.505-35.058 4.581-33.104-5.679-71.084-22.915-84.827-17.237-13.741-34.924 1.955-39.507 35.06z"/></g><g clip-path="url(#b)"><defs><circle id="D" cx="488.362" cy="456.147" r="407.768"/></defs><clipPath id="E"><use xlink:href="#D" overflow="visible"/></clipPath><path clip-path="url(#E)" fill="none" stroke="#000" stroke-width=".556" stroke-miterlimit="10" d="M606.308 450.541c-5.348 38.634 6.627 82.952 26.74 98.988 20.118 16.038 40.757-2.278 46.101-40.914 5.346-38.631-6.624-82.952-26.742-98.989-20.114-16.036-40.753 2.283-46.099 40.915z"/></g><g clip-path="url(#b)"><defs><circle id="F" cx="488.362" cy="456.147" r="407.768"/></defs><clipPath id="G"><use xlink:href="#F" overflow="visible"/></clipPath><path clip-path="url(#G)" fill="none" stroke="#000" stroke-width=".556" stroke-miterlimit="10" d="M600.778 446.131c-6.158 44.498 7.633 95.551 30.804 114.022 23.17 18.472 46.944-2.63 53.104-47.128 6.155-44.498-7.636-95.55-30.807-114.023-23.171-18.469-46.945 2.63-53.101 47.129z"/></g><g clip-path="url(#b)"><defs><circle id="H" cx="488.362" cy="456.147" r="407.768"/></defs></g><g clip-path="url(#b)"><defs><circle id="I" cx="488.362" cy="456.147" r="407.768"/></defs></g><g clip-path="url(#b)"><defs><circle id="J" cx="488.362" cy="456.147" r="407.768"/></defs></g><g clip-path="url(#b)"><defs><circle id="K" cx="488.362" cy="456.147" r="407.768"/></defs><clipPath id="L"><use xlink:href="#K" overflow="visible"/></clipPath><g clip-path="url(#L)"><path d="M640.93 497.471c.36 3.777-1.332 7.368-3.78 8.031-2.45.663-4.728-1.852-5.086-5.616-.367-3.771 1.326-7.362 3.774-8.031s4.728 1.848 5.092 5.616z"/><path fill="none" stroke="#000" stroke-width="1.294" stroke-miterlimit="10" d="M640.372 497.624l-3.222-33.673s6.967.002 12.723-9.665l3.222 33.673"/><path d="M653.648 487.807c.36 3.776-1.333 7.368-3.781 8.031-2.449.662-4.728-1.845-5.087-5.617-.358-3.771 1.333-7.374 3.78-8.044 2.445-.649 4.722 1.859 5.088 5.63zM638.122 474.204s7.071-.465 12.812-8.742l-1.066-11.176s-4.195 8.217-12.723 9.665l.977 10.253z"/></g></g><g clip-path="url(#b)"><defs><circle id="M" cx="488.362" cy="456.147" r="407.768"/></defs></g><g clip-path="url(#b)"><defs><circle id="N" cx="488.362" cy="456.147" r="407.768"/></defs><clipPath id="O"><use xlink:href="#N" overflow="visible"/></clipPath><path clip-path="url(#O)" fill="none" stroke="#000" stroke-width="2.225" stroke-miterlimit="10" d="M624.223 464.823c-2.718 19.631 3.369 42.149 13.588 50.294 10.222 8.15 20.709-1.156 23.423-20.785 2.718-19.631-3.366-42.146-13.587-50.295-10.222-8.149-20.707 1.157-23.424 20.786z"/></g><g clip-path="url(#b)"><linearGradient id="P" gradientUnits="userSpaceOnUse" x1="336.308" y1="919.468" x2="336.308" y2="1023.486" gradientTransform="matrix(1 0 0 -1 144 1094.456)"><stop offset="0" stop-color="#e6c7c7"/><stop offset="1" stop-color="#b59c9c"/></linearGradient><path fill="url(#P)" d="M460.968 174.987l8.314-104.017h18.127l12.239 104.017z"/><linearGradient id="Q" gradientUnits="userSpaceOnUse" x1="233.996" y1="822.29" x2="233.996" y2="718.159" gradientTransform="matrix(1 0 0 -1 144 1094.456)"><stop offset="0" stop-color="#848484"/><stop offset="1"/></linearGradient><path fill="url(#Q)" d="M431.642 199.494s-76.868-1.237-89.896 63.714c-13.027 64.952-6.146 54.342-13.137 77.539-6.989 23.196-5.88 34.991 7.088 37.888 12.968 2.896 31.058-16.713 31.058-16.713l64.887-162.428z"/><linearGradient id="R" gradientUnits="userSpaceOnUse" x1="438.022" y1="823.674" x2="438.022" y2="709.225" gradientTransform="matrix(1 0 0 -1 144 1094.456)"><stop offset="0" stop-color="#848484"/><stop offset="1"/></linearGradient><path fill="url(#R)" d="M525.936 189.979s92.803 12.187 101.44 77.777c8.636 65.592 2.484 54.598 7.898 78.159 5.417 23.563 3.52 35.27-9.619 37.396-13.137 2.127-29.874-18.509-29.874-18.509l-69.845-174.823z"/><linearGradient id="S" gradientUnits="userSpaceOnUse" x1="337.337" y1="653.621" x2="337.337" y2="447.347" gradientTransform="matrix(1 0 0 -1 144 1094.456)"><stop offset="0" stop-color="#b2b2b2"/><stop offset="1"/></linearGradient><path fill="url(#S)" d="M489.524 528.4c-64.359 0-70.49 104.426-103.626 104.426-33.138 0-5.101-139.916-6.667-171.785-1.564-31.867-28.612-106.906-17.737-177.942 8.397-54.843 31.984-89.562 85.804-99.628 10.789-2.019 12.262-21.186 34.041-21.186 21.777 0 25.401 18.928 35.122 20.404 69.642 10.576 76.104 56.506 85.352 101.398 10.538 51.157-25.53 153.472-19.47 180.311 6.057 26.837 33.887 168.429 0 168.429-33.89.001-31.729-104.427-92.819-104.427z"/><linearGradient id="T" gradientUnits="userSpaceOnUse" x1="245.508" y1="431.068" x2="245.508" y2="467.127" gradientTransform="matrix(1 0 0 -1 144 1094.456)"><stop offset="0" stop-color="#e6c7c7"/><stop offset="1" stop-color="#b59c9c"/></linearGradient><path fill="url(#T)" d="M389.361 627.413c11.396-.702 14.835 3.261 14.835 3.261l-4.819 3.468s-.102 8.866 5.41 13.744c5.252 4.647-4.691 12.043-11.137-.915 0 0 1.323 4.667 3.837 7.669 2.873 3.429-5.617 10.054-10.771-5.513 0 0 .118 5.385 2.155 9.895 2.425 5.373-7.778 6.631-8.239-7.638 0 0-.98 5.81.131 9.792.995 3.557-5.836 4.333-7.888-9.401-1.058-11.733 4.705-23.634 16.486-24.362z"/><linearGradient id="U" gradientUnits="userSpaceOnUse" x1="438.941" y1="431.843" x2="438.941" y2="467.889" gradientTransform="matrix(1 0 0 -1 144 1094.456)"><stop offset="0" stop-color="#e6c7c7"/><stop offset="1" stop-color="#b59c9c"/></linearGradient><path fill="url(#U)" d="M583.087 626.639c-11.396-.703-15.714 4.006-15.714 4.006l5.651 4.095s.148 7.496-5.362 12.371c-5.253 4.649 4.691 12.043 11.136-.915 0 0-1.32 4.667-3.836 7.669-2.872 3.427 5.616 10.054 10.771-5.515 0 0-.118 5.387-2.153 9.898-2.424 5.371 7.779 6.627 8.239-7.64 0 0 .979 5.81-.133 9.792-.992 3.557 5.84 4.333 7.888-9.403 1.057-11.73-4.703-23.63-16.487-24.358z"/><linearGradient id="V" gradientUnits="userSpaceOnUse" x1="183.2" y1="696.204" x2="183.2" y2="728.056" gradientTransform="matrix(1 0 0 -1 144 1094.456)"><stop offset="0" stop-color="#e6c7c7"/><stop offset="1" stop-color="#b59c9c"/></linearGradient><path fill="url(#V)" d="M348.016 386.199c.263-2.207-.121-5.213-.708-7.531-1.104-4.369-3.322-9.739-11.016-11.752-7.697-2.015-21.861 1.786-27.486 12.694-5.897 13.208.313 16.163 1.449 12.5 1.271-4.104 5.33-8.707 5.33-8.707-7.539 12.832 1.793 17.161 2.728 11.129.784-5.063 3.677-9.875 3.677-9.875-4.29 16.478 6.573 15.159 6.048 10.605-.459-3.991 1.017-8.811 1.017-8.811-1.749 14.865 10.772 13.644 8.912 6.747-1.953-7.24-.082-11.644 2.317-12.985 1.58-.662 7.732 5.986 7.732 5.986z"/><linearGradient id="W" gradientUnits="userSpaceOnUse" x1="490.334" y1="693.582" x2="490.334" y2="725.437" gradientTransform="matrix(1 0 0 -1 144 1094.456)"><stop offset="0" stop-color="#e6c7c7"/><stop offset="1" stop-color="#b59c9c"/></linearGradient><path fill="url(#W)" d="M613.518 388.82c-.263-2.207.122-5.213.709-7.531 1.101-4.369 3.323-9.739 11.014-11.752 7.699-2.016 21.86 1.786 27.486 12.694 5.897 13.209-.313 16.163-1.45 12.5-1.271-4.104-5.329-8.707-5.329-8.707 7.541 12.831-1.791 17.16-2.726 11.128-.784-5.063-3.677-9.875-3.677-9.875 4.291 16.479-6.575 15.159-6.048 10.604.458-3.99-1.019-8.811-1.019-8.811 1.747 14.864-10.772 13.643-8.91 6.747 1.952-7.24.083-11.644-2.318-12.985-1.579-.661-7.732 5.988-7.732 5.988z"/></g><g clip-path="url(#b)"><linearGradient id="X" gradientUnits="userSpaceOnUse" x1="323.707" y1="747.243" x2="312.245" y2="747.243" gradientTransform="matrix(1 0 0 -1 144 1094.456)"><stop offset="0" stop-color="#b2b2b2"/><stop offset="1" stop-color="#fff"/></linearGradient><path fill="url(#X)" d="M466.614 377.503s-.29-.918-.734-2.56c-.47-1.633-1.08-3.978-1.778-6.797-.372-1.404-.715-2.94-1.075-4.565l-1.143-5.107-1.056-5.496c-.356-1.871-.747-3.769-1.009-5.686-.295-1.913-.587-3.826-.875-5.709-.139-.942-.302-1.874-.416-2.799l-.294-2.747c-.193-1.803-.378-3.548-.556-5.2-.186-1.652-.356-3.214-.396-4.666l-.484-9.656.658 9.642c.064 1.448.262 3.006.478 4.654.207 1.647.423 3.384.648 5.182l.342 2.736c.132.922.311 1.849.467 2.787l.977 5.682c.297 1.908.72 3.792 1.109 5.654.393 1.86.777 3.689 1.15 5.46.427 1.759.839 3.459 1.232 5.072.389 1.612.758 3.136 1.152 4.528.747 2.797 1.396 5.119 1.891 6.728.468 1.616.776 2.536.776 2.536a.557.557 0 11-1.058.356l-.002-.007-.004-.022z"/><linearGradient id="Y" gradientUnits="userSpaceOnUse" x1="299.455" y1="807.45" x2="287.99" y2="807.45" gradientTransform="matrix(1 0 0 -1 144 1094.456)"><stop offset="0" stop-color="#b2b2b2"/><stop offset="1" stop-color="#fff"/></linearGradient><path fill="url(#Y)" d="M442.36 317.298s-.289-.918-.733-2.56c-.47-1.633-1.081-3.978-1.779-6.798-.372-1.404-.714-2.94-1.075-4.564l-1.143-5.107-1.054-5.495c-.358-1.872-.747-3.768-1.011-5.687-.293-1.913-.585-3.825-.875-5.709-.138-.942-.301-1.873-.416-2.799l-.294-2.747-.556-5.2c-.186-1.651-.355-3.213-.395-4.666l-.484-9.657.658 9.643c.064 1.448.263 3.007.479 4.652l.649 5.183.342 2.736c.131.923.311 1.849.466 2.787l.976 5.681c.298 1.908.721 3.793 1.111 5.655l1.151 5.46 1.231 5.071c.389 1.613.759 3.138 1.154 4.53.747 2.798 1.396 5.118 1.89 6.727.468 1.616.775 2.537.775 2.537a.559.559 0 11-1.061.349l-.006-.022z"/><linearGradient id="Z" gradientUnits="userSpaceOnUse" x1="295.486" y1="732.605" x2="284.33" y2="729.973" gradientTransform="matrix(1 0 0 -1 144 1094.456)"><stop offset="0" stop-color="#b2b2b2"/><stop offset="1" stop-color="#fff"/></linearGradient><path fill="url(#Z)" d="M445.375 391.584s-.492-.828-1.302-2.324c-.833-1.483-1.964-3.625-3.292-6.208-.683-1.282-1.371-2.698-2.094-4.196-.726-1.498-1.494-3.076-2.285-4.709l-2.289-5.105c-.777-1.74-1.592-3.495-2.289-5.303-.725-1.794-1.449-3.589-2.164-5.354-.35-.886-.722-1.754-1.046-2.629-.31-.881-.615-1.751-.917-2.606l-1.735-4.933c-.559-1.566-1.085-3.048-1.456-4.451l-2.689-9.287 2.854 9.234c.396 1.396.948 2.865 1.535 4.419.58 1.556 1.189 3.197 1.822 4.894l.96 2.584c.339.868.728 1.729 1.094 2.605.744 1.75 1.5 3.527 2.254 5.305.727 1.79 1.572 3.527 2.379 5.248l2.373 5.05 2.363 4.653c.748 1.48 1.458 2.878 2.163 4.143 1.37 2.551 2.533 4.662 3.385 6.114a74.568 74.568 0 001.338 2.292.557.557 0 11-.948.587l-.003-.007-.011-.016z"/><linearGradient id="aa" gradientUnits="userSpaceOnUse" x1="259.186" y1="736.829" x2="248.082" y2="733.981" gradientTransform="matrix(1 0 0 -1 144 1094.456)"><stop offset="0" stop-color="#b2b2b2"/><stop offset="1" stop-color="#fff"/></linearGradient><path fill="url(#aa)" d="M409.65 387.241s-.509-.817-1.347-2.298c-.861-1.466-2.034-3.585-3.412-6.143-.709-1.269-1.422-2.671-2.176-4.154l-2.376-4.664-2.387-5.061c-.811-1.725-1.659-3.464-2.393-5.257-.758-1.78-1.517-3.56-2.266-5.312-.368-.879-.757-1.74-1.098-2.608l-.967-2.588-1.831-4.898c-.59-1.555-1.144-3.025-1.541-4.421l-2.869-9.233 3.032 9.176c.423 1.388 1.002 2.847 1.621 4.389l1.916 4.859 1.012 2.564c.357.862.76 1.714 1.144 2.584.776 1.735 1.565 3.497 2.356 5.26.762 1.774 1.641 3.496 2.48 5.201l2.471 5.003 2.454 4.605c.776 1.466 1.512 2.85 2.242 4.101 1.418 2.524 2.624 4.612 3.502 6.047a70.1 70.1 0 001.383 2.265.558.558 0 01-.937.605c-.001-.002-.003-.003-.003-.005l-.01-.017z"/><linearGradient id="ab" gradientUnits="userSpaceOnUse" x1="273.046" y1="828.438" x2="261.585" y2="828.707" gradientTransform="matrix(1 0 0 -1 144 1094.456)"><stop offset="0" stop-color="#b2b2b2"/><stop offset="1" stop-color="#fff"/></linearGradient><path fill="url(#ab)" d="M415.237 296.277s-.267-.925-.672-2.577c-.432-1.645-.986-4.002-1.62-6.838-.338-1.414-.646-2.957-.968-4.589-.325-1.631-.667-3.352-1.023-5.133l-.924-5.519c-.314-1.879-.66-3.784-.876-5.708l-.742-5.728c-.116-.946-.256-1.88-.35-2.808l-.229-2.753-.433-5.211c-.146-1.656-.28-3.221-.285-4.674l-.257-9.665.432 9.654c.029 1.449.192 3.012.37 4.664.167 1.651.343 3.393.527 5.195.092.902.185 1.816.278 2.744.109.925.266 1.855.399 2.797l.842 5.703c.253 1.915.632 3.81.978 5.679.349 1.868.691 3.707 1.022 5.487l1.112 5.098c.351 1.621.685 3.153 1.048 4.556.682 2.815 1.274 5.15 1.731 6.77.43 1.627.716 2.555.716 2.555a.557.557 0 11-1.065.329l-.001-.007-.01-.021z"/><linearGradient id="ac" gradientUnits="userSpaceOnUse" x1="267.99" y1="766.515" x2="256.613" y2="765.103" gradientTransform="matrix(1 0 0 -1 144 1094.456)"><stop offset="0" stop-color="#b2b2b2"/><stop offset="1" stop-color="#fff"/></linearGradient><path fill="url(#ac)" d="M414.636 358.136s-.399-.876-1.042-2.451c-.668-1.563-1.562-3.815-2.603-6.527-.542-1.349-1.072-2.83-1.629-4.396l-1.763-4.928-1.724-5.324c-.584-1.813-1.206-3.646-1.702-5.518-.528-1.862-1.053-3.725-1.572-5.558-.254-.917-.53-1.822-.757-2.727-.214-.909-.424-1.807-.63-2.69l-1.192-5.092c-.387-1.617-.75-3.146-.966-4.583l-1.671-9.523 1.841 9.487c.242 1.43.633 2.952 1.048 4.559l1.281 5.062.677 2.672c.243.899.534 1.797.804 2.709l1.67 5.517c.529 1.857 1.182 3.675 1.798 5.474l1.814 5.278 1.846 4.881c.584 1.553 1.139 3.019 1.702 4.352 1.086 2.684 2.015 4.908 2.705 6.444a72.058 72.058 0 001.083 2.421.559.559 0 01-1.007.483l-.003-.006-.008-.016z"/><linearGradient id="ad" gradientUnits="userSpaceOnUse" x1="224.529" y1="785.583" x2="213.278" y2="783.387" gradientTransform="matrix(1 0 0 -1 144 1094.456)"><stop offset="0" stop-color="#b2b2b2"/><stop offset="1" stop-color="#fff"/></linearGradient><path fill="url(#ad)" d="M373.26 338.814s-.46-.846-1.21-2.373c-.775-1.514-1.822-3.698-3.047-6.332-.634-1.307-1.266-2.749-1.931-4.274l-2.1-4.793-2.088-5.191c-.708-1.768-1.455-3.556-2.081-5.388l-1.954-5.435c-.317-.898-.654-1.781-.944-2.667-.276-.892-.547-1.773-.814-2.641-.536-1.732-1.052-3.409-1.543-4.997-.497-1.585-.965-3.086-1.28-4.504l-2.326-9.384 2.493 9.337c.341 1.409.835 2.901 1.362 4.475.518 1.578 1.063 3.242 1.629 4.962l.86 2.619c.306.88.659 1.756.99 2.646l2.047 5.389c.657 1.817 1.434 3.585 2.173 5.337l2.175 5.14c.755 1.645 1.487 3.233 2.181 4.741.69 1.508 1.346 2.933 2 4.224 1.27 2.603 2.35 4.756 3.144 6.241a74.74 74.74 0 001.248 2.341.558.558 0 11-.971.551l-.003-.007-.01-.017z"/><linearGradient id="ae" gradientUnits="userSpaceOnUse" x1="235.495" y1="817.893" x2="224.061" y2="817.058" gradientTransform="matrix(1 0 0 -1 144 1094.456)"><stop offset="0" stop-color="#b2b2b2"/><stop offset="1" stop-color="#fff"/></linearGradient><path fill="url(#ae)" d="M380.607 306.856s-.355-.894-.918-2.5c-.587-1.596-1.366-3.89-2.268-6.651-.473-1.373-.927-2.881-1.405-4.474l-1.511-5.01c-.471-1.753-.959-3.564-1.452-5.404s-1.02-3.702-1.422-5.599c-.432-1.886-.862-3.772-1.289-5.629-.206-.93-.436-1.846-.618-2.762-.166-.918-.33-1.826-.493-2.719-.323-1.785-.636-3.51-.934-5.146-.304-1.634-.588-3.179-.732-4.624-.713-5.757-1.186-9.596-1.186-9.596l1.358 9.569c.17 1.44.483 2.979.816 4.605.326 1.628.668 3.346 1.024 5.121l.541 2.703c.198.91.444 1.822.667 2.746.458 1.844.922 3.721 1.388 5.594.435 1.882.995 3.732 1.518 5.558l1.546 5.363 1.598 4.968c.504 1.58.984 3.073 1.48 4.433.949 2.736 1.766 5.003 2.375 6.572.583 1.577.958 2.473.958 2.473a.558.558 0 01-1.03.43l-.002-.007-.009-.014z"/><linearGradient id="af" gradientUnits="userSpaceOnUse" x1="231.242" y1="729.472" x2="220.287" y2="726.1" gradientTransform="matrix(1 0 0 -1 144 1094.456)"><stop offset="0" stop-color="#b2b2b2"/><stop offset="1" stop-color="#fff"/></linearGradient><path fill="url(#af)" d="M383.105 394.258s-.546-.792-1.453-2.232c-.932-1.423-2.203-3.486-3.7-5.975-.769-1.234-1.548-2.601-2.371-4.047l-2.595-4.545c-.851-1.603-1.73-3.259-2.625-4.941-.892-1.684-1.822-3.381-2.639-5.137l-2.515-5.199c-.411-.859-.839-1.702-1.22-2.553l-1.09-2.539a8494.06 8494.06 0 00-2.061-4.807c-.663-1.524-1.286-2.966-1.75-4.343l-3.302-9.087 3.465 9.021c.488 1.365 1.135 2.796 1.825 4.307l2.144 4.762 1.132 2.515c.396.843.84 1.676 1.264 2.526l2.604 5.142c.845 1.738 1.805 3.415 2.724 5.078.921 1.662 1.829 3.297 2.706 4.881l2.668 4.485c.845 1.427 1.648 2.774 2.434 3.99 1.537 2.454 2.839 4.482 3.787 5.874a67.74 67.74 0 001.488 2.196.558.558 0 01-.907.652l-.004-.006-.009-.018z"/><linearGradient id="ag" gradientUnits="userSpaceOnUse" x1="261.218" y1="701.929" x2="250.264" y2="698.558" gradientTransform="matrix(1 0 0 -1 144 1094.456)"><stop offset="0" stop-color="#b2b2b2"/><stop offset="1" stop-color="#fff"/></linearGradient><path fill="url(#ag)" d="M413.082 421.803s-.546-.792-1.454-2.23c-.931-1.424-2.203-3.486-3.7-5.975-.768-1.235-1.547-2.601-2.371-4.048l-2.594-4.545-2.626-4.942c-.892-1.684-1.822-3.38-2.639-5.137l-2.515-5.198c-.409-.86-.839-1.702-1.22-2.554-.369-.857-.731-1.705-1.089-2.539l-2.062-4.807c-.663-1.524-1.285-2.966-1.749-4.343l-3.303-9.086 3.465 9.022c.489 1.366 1.137 2.795 1.827 4.306l2.144 4.762 1.132 2.514c.397.843.841 1.676 1.265 2.526.859 1.696 1.73 3.419 2.604 5.142.845 1.737 1.805 3.414 2.725 5.077.922 1.662 1.829 3.298 2.705 4.881l2.668 4.484c.845 1.426 1.647 2.774 2.435 3.989 1.536 2.455 2.838 4.482 3.785 5.875a69.884 69.884 0 001.488 2.196.558.558 0 01-.906.651c-.002-.002-.004-.003-.005-.006l-.01-.015z"/><linearGradient id="ah" gradientUnits="userSpaceOnUse" x1="249.653" y1="847.886" x2="238.186" y2="847.821" gradientTransform="matrix(1 0 0 -1 144 1094.456)"><stop offset="0" stop-color="#b2b2b2"/><stop offset="1" stop-color="#fff"/></linearGradient><path fill="url(#ah)" d="M392.729 276.866s-.295-.916-.748-2.557c-.481-1.631-1.103-3.973-1.817-6.788-.38-1.402-.731-2.936-1.101-4.559-.373-1.621-.767-3.332-1.172-5.101-.353-1.781-.718-3.62-1.087-5.49-.368-1.87-.768-3.764-1.042-5.681l-.908-5.704c-.143-.941-.311-1.871-.43-2.797l-.31-2.746-.584-5.196c-.194-1.652-.374-3.211-.421-4.664l-.54-9.654.714 9.638c.072 1.448.281 3.005.504 4.651l.679 5.178.358 2.735c.137.921.321 1.848.48 2.785.333 1.872.672 3.773 1.009 5.676.307 1.907.743 3.79 1.142 5.648l1.182 5.454 1.261 5.063c.397 1.61.776 3.132 1.179 4.523.764 2.793 1.425 5.11 1.929 6.717.478 1.613.791 2.532.791 2.532a.56.56 0 01-1.057.361l-.002-.007-.009-.017z"/><linearGradient id="ai" gradientUnits="userSpaceOnUse" x1="285.358" y1="887.484" x2="274.007" y2="889.067" gradientTransform="matrix(1 0 0 -1 144 1094.456)"><stop offset="0" stop-color="#b2b2b2"/><stop offset="1" stop-color="#fff"/></linearGradient><path fill="url(#ai)" d="M424.085 236.822s-.161-.95-.372-2.637c-.242-1.682-.521-4.089-.823-6.979-.173-1.443-.302-3.01-.434-4.669l-.427-5.215-.285-5.588c-.095-1.904-.219-3.834-.215-5.771l-.079-5.775c-.006-.952-.039-1.897-.025-2.83a4311.694 4311.694 0 00.257-7.988c.045-1.662.091-3.232.253-4.676l.855-9.63-.68 9.64c-.136 1.443-.155 3.015-.168 4.675l-.074 5.223-.039 2.757c.002.931.051 1.875.076 2.826l.182 5.761c.029 1.931.188 3.856.319 5.753.13 1.896.259 3.762.385 5.567.181 1.801.353 3.542.519 5.191.161 1.652.317 3.212.516 4.646.354 2.874.674 5.262.943 6.924.24 1.665.419 2.62.419 2.62a.558.558 0 11-1.097.205l-.001-.007-.005-.023z"/><linearGradient id="aj" gradientUnits="userSpaceOnUse" x1="306.672" y1="856.475" x2="295.372" y2="858.406" gradientTransform="matrix(1 0 0 -1 144 1094.456)"><stop offset="0" stop-color="#b2b2b2"/><stop offset="1" stop-color="#fff"/></linearGradient><path fill="url(#aj)" d="M444.493 267.654s-.129-.954-.291-2.647c-.189-1.689-.395-4.103-.608-7-.129-1.447-.21-3.019-.292-4.681l-.266-5.226-.115-5.596c-.037-1.905-.102-3.84-.038-5.774.032-1.935.066-3.87.099-5.775.022-.952.019-1.896.061-2.829l.173-2.758.327-5.219c.096-1.659.19-3.228.396-4.666l1.149-9.6-.976 9.614c-.181 1.439-.247 3.008-.313 4.668-.073 1.658-.152 3.407-.233 5.216l-.122 2.754c-.026.932-.006 1.875-.011 2.826l.005 5.763c-.029 1.931.07 3.861.142 5.76.072 1.899.145 3.769.213 5.577.125 1.806.247 3.551.36 5.207.111 1.655.219 3.219.374 4.658.266 2.884.514 5.28.73 6.95.189 1.672.337 2.631.337 2.632a.559.559 0 01-1.104.17v-.024z"/><linearGradient id="ak" gradientUnits="userSpaceOnUse" x1="350.66" y1="742.81" x2="362.125" y2="742.81" gradientTransform="matrix(1 0 0 -1 144 1094.456)"><stop offset="0" stop-color="#b2b2b2"/><stop offset="1" stop-color="#fff"/></linearGradient><path fill="url(#ak)" d="M494.688 381.61s.308-.921.777-2.536c.494-1.608 1.142-3.931 1.888-6.728.397-1.393.768-2.917 1.153-4.528.394-1.613.808-3.313 1.233-5.072l1.151-5.461c.39-1.861.812-3.746 1.109-5.654l.975-5.681c.157-.938.334-1.864.467-2.787l.342-2.737.65-5.182c.214-1.648.412-3.205.478-4.653l.659-9.643s-.195 3.862-.484 9.655c-.039 1.453-.212 3.015-.396 4.667-.177 1.652-.362 3.396-.557 5.199l-.293 2.747c-.115.927-.276 1.858-.416 2.8l-.874 5.708c-.264 1.918-.654 3.815-1.01 5.687-.36 1.871-.713 3.713-1.057 5.496a2278.76 2278.76 0 01-1.142 5.106c-.36 1.625-.702 3.161-1.075 4.566-.698 2.819-1.309 5.164-1.777 6.797-.445 1.643-.735 2.56-.735 2.56l-.004.016a.557.557 0 11-1.062-.342z"/><linearGradient id="al" gradientUnits="userSpaceOnUse" x1="374.914" y1="803.015" x2="386.379" y2="803.015" gradientTransform="matrix(1 0 0 -1 144 1094.456)"><stop offset="0" stop-color="#b2b2b2"/><stop offset="1" stop-color="#fff"/></linearGradient><path fill="url(#al)" d="M518.943 321.405s.308-.921.776-2.537c.495-1.609 1.143-3.93 1.889-6.728.395-1.392.765-2.917 1.153-4.53.393-1.611.805-3.312 1.232-5.071.372-1.771.759-3.601 1.151-5.461.388-1.861.812-3.746 1.109-5.654l.976-5.681c.154-.938.333-1.865.467-2.787l.342-2.736.647-5.182c.216-1.647.414-3.205.478-4.652l.661-9.643s-.196 3.862-.486 9.656c-.037 1.453-.21 3.015-.395 4.666-.177 1.653-.362 3.396-.557 5.199-.096.903-.193 1.819-.295 2.747-.113.927-.275 1.858-.414 2.8-.29 1.883-.582 3.795-.874 5.708-.264 1.92-.654 3.815-1.01 5.687a8223.7 8223.7 0 01-1.056 5.496c-.395 1.771-.78 3.483-1.143 5.107-.359 1.625-.704 3.161-1.075 4.565-.697 2.819-1.309 5.164-1.779 6.798-.442 1.644-.732 2.561-.732 2.561l-.005.016a.56.56 0 01-.702.365.556.556 0 01-.361-.7l.003-.009z"/><linearGradient id="am" gradientUnits="userSpaceOnUse" x1="386.813" y1="740.794" x2="398.227" y2="739.723" gradientTransform="matrix(1 0 0 -1 144 1094.456)"><stop offset="0" stop-color="#b2b2b2"/><stop offset="1" stop-color="#fff"/></linearGradient><path fill="url(#am)" d="M528.041 383.495s.396-.887 1.01-2.452c.644-1.557 1.507-3.807 2.512-6.523.524-1.349 1.035-2.833 1.572-4.401.539-1.568 1.108-3.223 1.699-4.933.537-1.728 1.093-3.515 1.655-5.329.562-1.815 1.16-3.653 1.634-5.526l1.502-5.564c.242-.918.508-1.825.725-2.731l.598-2.692 1.13-5.098c.367-1.621.713-3.152.911-4.588l1.558-9.539-1.386 9.568c-.175 1.443-.488 2.981-.829 4.608-.331 1.629-.678 3.349-1.04 5.125l-.549 2.708c-.2.911-.449 1.823-.674 2.748-.463 1.847-.934 3.725-1.407 5.601-.44 1.886-1.005 3.737-1.537 5.568l-1.562 5.372a4899.55 4899.55 0 00-1.615 4.978c-.511 1.584-.997 3.081-1.498 4.445-.96 2.741-1.786 5.019-2.405 6.603-.596 1.593-.972 2.48-.972 2.48l-.006.016a.558.558 0 11-1.026-.444z"/><g><linearGradient id="an" gradientUnits="userSpaceOnUse" x1="415.183" y1="732.392" x2="426.288" y2="729.544" gradientTransform="matrix(1 0 0 -1 144 1094.456)"><stop offset="0" stop-color="#b2b2b2"/><stop offset="1" stop-color="#fff"/></linearGradient><path fill="url(#an)" d="M551.767 391.094s.528-.815 1.383-2.265c.879-1.436 2.082-3.522 3.502-6.047.729-1.252 1.466-2.635 2.242-4.101.78-1.465 1.604-3.008 2.453-4.606.803-1.622 1.629-3.299 2.472-5.003.839-1.705 1.718-3.425 2.481-5.201l2.355-5.26c.383-.87.787-1.723 1.142-2.583.343-.867.679-1.723 1.013-2.564l1.916-4.86c.617-1.542 1.195-3.001 1.619-4.389l3.032-9.176-2.867 9.233c-.397 1.396-.953 2.867-1.542 4.421l-1.831 4.899-.967 2.588c-.342.869-.728 1.729-1.097 2.608l-2.266 5.312c-.73 1.794-1.581 3.533-2.393 5.257l-2.386 5.062c-.824 1.617-1.62 3.181-2.377 4.663-.753 1.484-1.467 2.886-2.175 4.155-1.377 2.558-2.551 4.677-3.414 6.143a71.654 71.654 0 01-1.346 2.298l-.009.014a.559.559 0 11-.947-.59l.007-.008z"/></g><g><linearGradient id="ao" gradientUnits="userSpaceOnUse" x1="411.068" y1="772.861" x2="422.443" y2="771.449" gradientTransform="matrix(1 0 0 -1 144 1094.456)"><stop offset="0" stop-color="#b2b2b2"/><stop offset="1" stop-color="#fff"/></linearGradient><path fill="url(#ao)" d="M551.405 351.333s.422-.875 1.085-2.422c.688-1.536 1.617-3.759 2.705-6.444.562-1.333 1.117-2.8 1.701-4.352l1.848-4.881 1.814-5.278c.615-1.799 1.268-3.617 1.797-5.475.561-1.847 1.118-3.696 1.669-5.517.268-.911.562-1.81.806-2.708l.675-2.673 1.282-5.062c.416-1.608.806-3.13 1.046-4.559l1.843-9.488-1.671 9.523c-.217 1.437-.579 2.966-.965 4.583l-1.193 5.092c-.207.884-.417 1.781-.628 2.69-.229.905-.506 1.809-.759 2.726-.518 1.833-1.045 3.696-1.57 5.559-.499 1.871-1.118 3.704-1.703 5.518-.587 1.813-1.164 3.598-1.726 5.324l-1.762 4.928c-.558 1.567-1.088 3.049-1.629 4.397-1.042 2.712-1.935 4.964-2.602 6.527-.644 1.575-1.044 2.45-1.044 2.45l-.007.016a.56.56 0 11-1.012-.474z"/></g><g><linearGradient id="ap" gradientUnits="userSpaceOnUse" x1="449.837" y1="781.148" x2="461.089" y2="778.951" gradientTransform="matrix(1 0 0 -1 144 1094.456)"><stop offset="0" stop-color="#b2b2b2"/><stop offset="1" stop-color="#fff"/></linearGradient><path fill="url(#ap)" d="M588.127 342.722s.478-.845 1.245-2.341c.793-1.485 1.877-3.64 3.145-6.242.654-1.29 1.311-2.715 1.999-4.223l2.182-4.742c.704-1.667 1.435-3.389 2.175-5.14.738-1.75 1.515-3.521 2.171-5.337.688-1.805 1.374-3.611 2.048-5.388.331-.892.685-1.767.99-2.647.292-.885.577-1.759.861-2.619l1.629-4.962c.528-1.575 1.021-3.066 1.361-4.475 1.498-5.603 2.494-9.338 2.494-9.338s-.932 3.754-2.327 9.385c-.315 1.418-.782 2.917-1.28 4.504l-1.541 4.998-.813 2.64c-.29.887-.628 1.77-.944 2.668-.645 1.792-1.299 3.614-1.953 5.435-.626 1.833-1.372 3.619-2.081 5.388l-2.087 5.192-2.101 4.793c-.665 1.526-1.297 2.967-1.932 4.275-1.226 2.632-2.272 4.817-3.047 6.332-.75 1.526-1.21 2.372-1.21 2.372l-.009.016a.558.558 0 01-.982-.534l.007-.01z"/></g><g><linearGradient id="aq" gradientUnits="userSpaceOnUse" x1="440.572" y1="813.753" x2="452.005" y2="812.919" gradientTransform="matrix(1 0 0 -1 144 1094.456)"><stop offset="0" stop-color="#b2b2b2"/><stop offset="1" stop-color="#fff"/></linearGradient><path fill="url(#aq)" d="M582.416 310.586s.375-.896.957-2.473c.613-1.569 1.429-3.837 2.378-6.572.494-1.36.975-2.853 1.478-4.433l1.599-4.969 1.547-5.363c.526-1.827 1.083-3.676 1.52-5.558l1.385-5.594c.223-.924.469-1.835.67-2.745l.538-2.704c.355-1.776.7-3.492 1.025-5.121.336-1.626.646-3.166.815-4.605.813-5.741 1.358-9.569 1.358-9.569l-1.184 9.596c-.146 1.445-.43 2.991-.735 4.624-.297 1.636-.608 3.361-.933 5.146-.162.892-.325 1.8-.494 2.719-.18.916-.409 1.832-.616 2.761-.425 1.856-.859 3.744-1.289 5.629-.401 1.895-.929 3.757-1.422 5.597-.493 1.84-.979 3.652-1.452 5.404-.523 1.737-1.032 3.417-1.512 5.01-.477 1.595-.931 3.101-1.404 4.474-.903 2.761-1.682 5.056-2.269 6.651a70.965 70.965 0 01-.918 2.5l-.007.016a.556.556 0 01-.723.312.554.554 0 01-.312-.725c-.002-.001 0-.005 0-.008z"/></g><g><linearGradient id="ar" gradientUnits="userSpaceOnUse" x1="443.131" y1="725.032" x2="454.086" y2="721.66" gradientTransform="matrix(1 0 0 -1 144 1094.456)"><stop offset="0" stop-color="#b2b2b2"/><stop offset="1" stop-color="#fff"/></linearGradient><path fill="url(#ar)" d="M578.342 398.065s.564-.789 1.487-2.196c.948-1.393 2.251-3.42 3.788-5.874.786-1.215 1.587-2.562 2.434-3.99.848-1.426 1.742-2.93 2.669-4.484a3725.63 3725.63 0 012.707-4.881c.918-1.663 1.879-3.34 2.724-5.077.871-1.723 1.744-3.446 2.604-5.142.423-.851.868-1.684 1.262-2.527.384-.85.765-1.688 1.135-2.514.743-1.651 1.464-3.248 2.144-4.761.689-1.512 1.337-2.942 1.827-4.307 2.078-5.414 3.465-9.022 3.465-9.022l-3.303 9.086c-.465 1.377-1.087 2.819-1.749 4.343-.654 1.529-1.346 3.14-2.062 4.807l-1.09 2.539c-.382.852-.812 1.694-1.22 2.553l-2.516 5.199c-.816 1.756-1.745 3.453-2.639 5.137l-2.624 4.944c-.9 1.576-1.769 3.099-2.595 4.543-.822 1.448-1.604 2.814-2.368 4.048-1.499 2.489-2.771 4.551-3.701 5.975-.905 1.439-1.454 2.232-1.454 2.232l-.009.014a.558.558 0 01-.921-.634c0-.005.005-.01.005-.011z"/></g><g><linearGradient id="as" gradientUnits="userSpaceOnUse" x1="413.154" y1="697.487" x2="424.108" y2="694.115" gradientTransform="matrix(1 0 0 -1 144 1094.456)"><stop offset="0" stop-color="#b2b2b2"/><stop offset="1" stop-color="#fff"/></linearGradient><path fill="url(#as)" d="M548.366 425.611s.564-.79 1.487-2.196c.946-1.392 2.248-3.419 3.785-5.874.787-1.215 1.59-2.562 2.437-3.99.848-1.426 1.742-2.93 2.669-4.484l2.704-4.881c.921-1.664 1.882-3.341 2.727-5.078.869-1.723 1.742-3.446 2.604-5.142.423-.851.866-1.684 1.262-2.526l1.135-2.513c.743-1.652 1.464-3.249 2.144-4.762.689-1.512 1.339-2.941 1.827-4.307 2.078-5.414 3.465-9.022 3.465-9.022l-3.303 9.086c-.465 1.377-1.087 2.82-1.749 4.343-.656 1.529-1.349 3.14-2.062 4.807l-1.09 2.539c-.382.852-.812 1.693-1.222 2.553-.828 1.715-1.672 3.457-2.514 5.199-.816 1.756-1.747 3.453-2.639 5.138l-2.624 4.943c-.9 1.577-1.771 3.099-2.595 4.544-.822 1.447-1.604 2.813-2.368 4.047-1.499 2.489-2.771 4.551-3.7 5.975a67.936 67.936 0 01-1.455 2.232l-.009.014a.558.558 0 01-.921-.633c0-.007.003-.011.005-.012z"/></g><g><linearGradient id="at" gradientUnits="userSpaceOnUse" x1="424.718" y1="853.038" x2="436.182" y2="852.972" gradientTransform="matrix(1 0 0 -1 144 1094.456)"><stop offset="0" stop-color="#b2b2b2"/><stop offset="1" stop-color="#fff"/></linearGradient><path fill="url(#at)" d="M568.574 271.383s.315-.919.793-2.532c.504-1.605 1.164-3.923 1.93-6.717.401-1.391.78-2.911 1.178-4.523l1.26-5.063 1.184-5.455c.4-1.859.834-3.742 1.142-5.649l1.008-5.675c.16-.937.346-1.863.481-2.785.123-.924.242-1.836.357-2.734.236-1.795.465-3.532.679-5.178.225-1.646.434-3.203.506-4.65l.713-9.638-.538 9.653c-.049 1.452-.228 3.013-.422 4.664a3406.363 3406.363 0 00-.894 7.941c-.12.926-.288 1.856-.432 2.797l-.91 5.704c-.272 1.917-.674 3.81-1.042 5.681-.368 1.869-.732 3.709-1.086 5.49-.405 1.769-.801 3.479-1.173 5.101-.369 1.622-.72 3.156-1.102 4.559-.716 2.814-1.335 5.156-1.816 6.787-.452 1.641-.749 2.558-.749 2.558l-.004.017a.56.56 0 01-1.064-.342c-.001-.002.001-.009.001-.011z"/></g><g><linearGradient id="au" gradientUnits="userSpaceOnUse" x1="402.511" y1="837.617" x2="413.966" y2="838.111" gradientTransform="matrix(1 0 0 -1 144 1094.456)"><stop offset="0" stop-color="#b2b2b2"/><stop offset="1" stop-color="#fff"/></linearGradient><path fill="url(#au)" d="M547.835 286.774s.267-.934.665-2.568c.426-1.629.973-3.976 1.599-6.803.336-1.408.64-2.947.957-4.574l1.013-5.12.913-5.505c.311-1.876.652-3.777.866-5.697l.728-5.718c.115-.943.256-1.878.348-2.804.076-.929.15-1.846.225-2.748.146-1.805.287-3.55.423-5.205.144-1.655.276-3.221.276-4.669l.242-9.661-.066 9.667c.023 1.453-.08 3.021-.195 4.678l-.329 5.219c-.059.905-.115 1.825-.175 2.757-.073.93-.197 1.867-.296 2.815l-.626 5.741c-.182 1.929-.49 3.839-.766 5.725a6083.21 6083.21 0 00-.816 5.536l-.921 5.152c-.291 1.639-.567 3.188-.878 4.606-.577 2.847-1.085 5.217-1.484 6.869a69.164 69.164 0 01-.624 2.589l-.005.017a.558.558 0 11-1.079-.288l.005-.011z"/></g><g><linearGradient id="av" gradientUnits="userSpaceOnUse" x1="389.019" y1="883.051" x2="400.373" y2="884.635" gradientTransform="matrix(1 0 0 -1 144 1094.456)"><stop offset="0" stop-color="#b2b2b2"/><stop offset="1" stop-color="#fff"/></linearGradient><path fill="url(#av)" d="M537.185 241.08s.177-.955.416-2.62c.269-1.661.589-4.05.944-6.925.198-1.434.354-2.994.517-4.645.166-1.651.338-3.392.52-5.192.124-1.805.255-3.671.386-5.566.129-1.897.288-3.822.318-5.753l.181-5.762c.024-.95.075-1.894.077-2.825l-.039-2.758-.075-5.222c-.013-1.661-.03-3.231-.167-4.675l-.681-9.641.856 9.63c.162 1.444.21 3.015.253 4.676.056 1.662.109 3.415.169 5.227.028.907.059 1.83.089 2.763.013.932-.02 1.878-.026 2.829-.023 1.905-.052 3.839-.079 5.775.007 1.937-.117 3.867-.213 5.771-.096 1.903-.192 3.776-.286 5.588l-.427 5.215c-.131 1.659-.26 3.228-.435 4.669-.301 2.888-.58 5.296-.822 6.978a67.828 67.828 0 01-.372 2.637l-.002.017a.562.562 0 01-.645.458.56.56 0 01-.457-.649z"/></g><g><linearGradient id="aw" gradientUnits="userSpaceOnUse" x1="327.61" y1="808.907" x2="321.282" y2="808.907" gradientTransform="matrix(1 0 0 -1 144 1094.456)"><stop offset="0" stop-color="#b2b2b2"/><stop offset="1" stop-color="#fff"/></linearGradient><path fill="url(#aw)" d="M470.499 317.471l-.313-2.753c-.211-1.75-.477-4.257-.764-7.271l-1.018-10.287c-.289-3.77-.599-7.791-.906-11.812l-.457-6-.224-2.941-.127-2.875c-.157-3.778-.303-7.303-.43-10.325l-.418-10.069s.236 4.024.593 10.062l.607 10.308.176 2.871.275 2.935c.186 1.976.373 3.98.56 5.987l1.109 11.784 1.195 10.253c.34 3.001.646 5.5.888 7.248l.362 2.747a.557.557 0 11-1.108.138z"/></g><g><linearGradient id="ax" gradientUnits="userSpaceOnUse" x1="325.188" y1="898.946" x2="318.872" y2="899.376" gradientTransform="matrix(1 0 0 -1 144 1094.456)"><stop offset="0" stop-color="#b2b2b2"/><stop offset="1" stop-color="#fff"/></linearGradient><path fill="url(#ax)" d="M465.907 227.277l-.126-2.768a315.2 315.2 0 01-.269-7.306l-.316-10.333-.101-11.847-.048-6.017-.023-2.949.069-2.878.273-10.33.267-10.073-.092 10.078c-.029 3.022-.061 6.548-.094 10.327l-.021 2.876.075 2.948.153 6.012.306 11.832.494 10.31c.135 3.017.271 5.531.395 7.292l.173 2.767a.558.558 0 11-1.112.073c-.003-.003-.003-.011-.003-.014z"/></g><g><linearGradient id="ay" gradientUnits="userSpaceOnUse" x1="340.684" y1="729.876" x2="334.373" y2="730.306" gradientTransform="matrix(1 0 0 -1 144 1094.456)"><stop offset="0" stop-color="#b2b2b2"/><stop offset="1" stop-color="#fff"/></linearGradient><path fill="url(#ay)" d="M481.403 396.346l-.127-2.767c-.092-1.761-.185-4.28-.268-7.305l-.316-10.333-.102-11.847c-.016-2.017-.031-4.032-.048-6.017l-.023-2.949.069-2.878.273-10.329c.159-6.045.267-10.073.267-10.073l-.093 10.078c-.028 3.022-.061 6.548-.093 10.327l-.021 2.876.075 2.948.153 6.011.307 11.832.493 10.311c.135 3.017.272 5.532.395 7.292l.174 2.766a.56.56 0 01-1.114.074c.002-.007-.001-.014-.001-.017z"/></g><g><linearGradient id="az" gradientUnits="userSpaceOnUse" x1="348.058" y1="801.698" x2="354.386" y2="801.698" gradientTransform="matrix(1 0 0 -1 144 1094.456)"><stop offset="0" stop-color="#b2b2b2"/><stop offset="1" stop-color="#fff"/></linearGradient><path fill="url(#az)" d="M492.065 324.537l.359-2.747c.245-1.748.55-4.248.89-7.247.349-3.001.758-6.502 1.193-10.254l1.11-11.784.561-5.986.274-2.936.174-2.871.609-10.309.593-10.061-.419 10.069c-.127 3.022-.272 6.547-.429 10.325l-.127 2.876-.223 2.941c-.153 1.979-.305 3.989-.458 5.999-.31 4.021-.616 8.042-.907 11.813-.373 3.764-.719 7.276-1.018 10.287a314.613 314.613 0 01-.765 7.271l-.313 2.754a.559.559 0 01-1.108-.127l.004-.013z"/></g><g><linearGradient id="aA" gradientUnits="userSpaceOnUse" x1="339.018" y1="868.088" x2="350.455" y2="868.847" gradientTransform="matrix(1 0 0 -1 144 1094.456)"><stop offset="0" stop-color="#b2b2b2"/><stop offset="1" stop-color="#fff"/></linearGradient><path fill="url(#aA)" d="M485.03 256.26s.246-.939.606-2.583c.386-1.638.879-3.997 1.441-6.839.301-1.416.568-2.959.851-4.595l.892-5.141.787-5.525c.266-1.882.562-3.792.732-5.715.201-1.922.399-3.842.598-5.733.094-.946.21-1.884.282-2.812.052-.93.106-1.849.159-2.752.106-1.808.207-3.557.305-5.213.105-1.658.2-3.226.169-4.675.01-5.798.019-9.666.019-9.666l.155 9.667c.059 1.452-.009 3.022-.085 4.682-.065 1.662-.138 3.413-.209 5.225-.035.907-.072 1.828-.112 2.761-.052.932-.154 1.872-.229 2.821l-.495 5.754c-.136 1.931-.399 3.85-.633 5.74l-.687 5.554-.803 5.171c-.253 1.645-.495 3.2-.77 4.626-.512 2.86-.964 5.239-1.326 6.902-.336 1.667-.562 2.604-.562 2.604l-.004.017a.558.558 0 11-1.084-.263c-.001-.006.003-.01.003-.012z"/></g><g><linearGradient id="aB" gradientUnits="userSpaceOnUse" x1="362.996" y1="894.02" x2="374.437" y2="894.779" gradientTransform="matrix(1 0 0 -1 144 1094.456)"><stop offset="0" stop-color="#b2b2b2"/><stop offset="1" stop-color="#fff"/></linearGradient><path fill="url(#aB)" d="M509.004 230.333s.247-.939.607-2.583c.388-1.638.881-3.997 1.44-6.838.304-1.416.572-2.961.851-4.596.286-1.635.585-3.359.895-5.141.256-1.792.52-3.643.787-5.525.267-1.882.563-3.791.733-5.715l.598-5.732c.094-.946.209-1.883.278-2.812l.161-2.753c.106-1.807.21-3.556.306-5.213.104-1.658.201-3.226.168-4.675l.02-9.665.154 9.667c.06 1.452-.009 3.021-.082 4.682l-.212 5.225c-.035.907-.072 1.828-.111 2.761-.052.931-.154 1.872-.229 2.82l-.494 5.754c-.135 1.932-.396 3.85-.632 5.74-.234 1.892-.466 3.753-.688 5.554l-.803 5.17c-.253 1.645-.493 3.2-.77 4.626-.511 2.859-.964 5.239-1.326 6.901-.336 1.667-.562 2.604-.562 2.604l-.004.016a.559.559 0 11-1.085-.264c-.002-.002 0-.006 0-.008z"/></g></g><g clip-path="url(#b)"><defs><circle id="aC" cx="488.79" cy="456.031" r="407.769"/></defs><clipPath id="aD"><use xlink:href="#aC" overflow="visible"/></clipPath><path clip-path="url(#aD)" fill="#56473C" d="M686.58 110.348c-40.837-15.729-98.095 51.173-102.228 45.963-4.132-5.212 29.12-33.468 33.438-49.834 4.319-16.367-47.112-11.899-77.463-11.899s-105.792-6.699-151.985 16.376c-46.193 23.075-70.329 67.352-75.501 63.919-9.503-6.312 61.82-72.375 54.668-80.294-7.15-7.92-156.926 37.59-162.881 42.056s133.757-72.814 133.757-72.814-2.993-28.302 18.542-12.045 70.709 13.206 91.981 12.744c21.272-.462 85.695 4.275 91.818-.699 6.124-4.974 1.226-13.472-10.468-22.837-11.695-9.366-6.553-20.842 15.069-.745 21.62 20.098 22.034 21.537 35.754 24.282 103.104 20.629 81.202-28.376 139.949 41.957 10.36 12.399 78.718 47.462-34.45 3.87z"/><defs><circle id="aE" cx="488.79" cy="456.031" r="407.769"/></defs><clipPath id="aF"><use xlink:href="#aE" overflow="visible"/></clipPath><g clip-path="url(#aF)"><path fill="#77665B" d="M379.895 106.431s.737-.629 2.113-1.616a55.408 55.408 0 012.544-1.686c.984-.652 2.143-1.303 3.412-2.005a67.259 67.259 0 014.163-2.146 79.212 79.212 0 014.833-1.985l10.586-4.047c1.796-.716 3.645-1.281 5.448-1.888 1.816-.562 3.635-1.019 5.38-1.512 1.753-.464 3.477-.793 5.104-1.129 1.621-.37 3.188-.534 4.623-.746 1.439-.183 2.745-.432 3.924-.488l3.042-.222 2.649-.147.011.112-2.609.479-2.993.496c-1.158.173-2.447.476-3.863.733-1.41.291-2.948.538-4.551.927l-5.062 1.112c-1.744.435-3.558.845-5.382 1.333l-2.751.757c-.926.244-1.86.472-2.775.765-1.836.565-3.686 1.105-5.444 1.81-.884.337-1.757.681-2.613 1.041-.849.373-1.671.783-2.485 1.168-1.641.747-3.159 1.607-4.646 2.316l-4.155 2.073-3.476 1.825c-1.045.53-1.913 1.064-2.662 1.452l-2.3 1.311-.065-.093zM311.06 94.522s1.123-.293 3.101-.75c.987-.235 2.194-.479 3.574-.782 1.378-.312 2.945-.602 4.653-.93 1.706-.331 3.555-.69 5.521-1 1.96-.348 4.051-.587 6.202-.896 2.156-.277 4.371-.643 6.622-1.009 2.249-.382 4.526-.804 6.8-1.261 2.273-.458 4.547-.912 6.796-1.292l6.607-1.114c4.282-.743 8.323-1.19 11.775-1.6l2.479-.289c.791-.08 1.543-.121 2.249-.177 1.411-.1 2.642-.187 3.655-.257l3.184-.182.009.112-3.15.51-3.613.536c-1.396.197-2.969.423-4.683.715-1.714.279-3.571.582-5.539.866l-6.189.911-6.627.942-6.852.924c-2.297.3-4.589.637-6.842.999-2.246.391-4.453.803-6.577 1.261-2.129.433-4.179.896-6.139 1.243-1.953.388-3.811.686-5.526.964-1.715.279-3.285.547-4.683.744-1.398.202-2.613.398-3.619.523-2.013.269-3.166.4-3.166.4l-.022-.111zM351.567 63.775s.195.122.586.291c.403.143.957.402 1.7.644.766.204 1.677.491 2.727.798l3.604.794c1.305.349 2.759.562 4.288.842 1.528.279 3.123.67 4.79 1.004 1.676.277 3.417.526 5.191.716 1.776.174 3.578.386 5.392.441 1.817.034 3.63.092 5.412.167l5.231.255c1.694.116 3.337.122 4.894.194 1.557.051 3.027.133 4.386.209 2.716.132 4.979.314 6.565.437l2.493.232-.001.111-2.499.102c-1.589.041-3.861.103-6.588.092-1.363.004-2.84.01-4.401-.021-1.562-.02-3.209-.039-4.909-.201-1.698-.139-3.454-.282-5.238-.43a229.174 229.174 0 01-5.397-.539c-.906-.07-1.803-.248-2.699-.368l-2.68-.338a94.45 94.45 0 00-5.236-.463c-1.692-.203-3.333-.398-4.881-.636l-2.252-.379c-.725-.122-1.411-.346-2.077-.503-1.323-.365-2.542-.664-3.598-1.019-1.042-.412-1.955-.75-2.691-1.063-.729-.349-1.276-.69-1.649-.891-.356-.234-.526-.386-.526-.386l.063-.092zM396.104 86.814l1.286-.363c.839-.235 2.09-.5 3.674-.881 1.583-.404 3.53-.743 5.761-1.145 2.233-.388 4.743-.911 7.516-1.222 2.766-.363 5.763-.758 8.941-1.104 1.584-.216 3.226-.304 4.901-.403l5.126-.313c1.739-.108 3.509-.202 5.296-.344l2.698-.2 2.728-.117c3.654-.172 7.365-.38 11.074-.623l5.56-.358c1.85-.129 3.693-.099 5.523-.156l10.747-.158c3.485-.042 6.855-.063 10.051-.029 3.192.094 6.21.231 8.995.356 5.571.231 10.213.493 13.458.675l5.099.321-.004.111-5.112.01a868.85 868.85 0 01-13.464-.143c-2.783-.045-5.799-.09-8.989-.19-3.188-.035-6.553.068-10.031.046-3.48-.005-7.076-.01-10.73-.017-3.656-.072-7.365.057-11.077.144-3.713.084-7.425.205-11.077.357-1.828.047-3.634.212-5.418.386-1.785.152-3.543.351-5.275.529-3.459.377-6.811.675-9.975 1.065-3.16.424-6.155.756-8.92 1.066a63.194 63.194 0 00-3.957.519l-3.564.511c-2.242.301-4.19.592-5.785.885-1.598.276-2.862.465-3.717.639l-1.312.254-.027-.108zM359.307 119.853s.243-.487.738-1.293c.489-.811 1.248-1.928 2.229-3.213.508-.627 1.037-1.329 1.667-2.009.618-.69 1.335-1.359 2.066-2.06a58.402 58.402 0 004.372-4.568 56.68 56.68 0 012.219-2.339c.781-.721 1.536-1.448 2.307-2.109.783-.646 1.524-1.292 2.294-1.817a43.922 43.922 0 012.187-1.454c.708-.407 1.351-.784 1.937-1.088.578-.319 1.121-.528 1.555-.72.876-.369 1.378-.559 1.378-.559l.05.1s-.44.323-1.215.85c-.379.28-.88.541-1.393.948-.516.399-1.116.816-1.766 1.276l-4.292 3.356c-1.571 1.232-3.169 2.642-4.837 3.995-.797.713-1.624 1.402-2.341 2.177a24.628 24.628 0 00-2.012 2.356c-.628.786-1.19 1.581-1.769 2.293-.587.705-1.149 1.367-1.676 1.971-2.1 2.422-3.611 3.972-3.611 3.972l-.087-.065zM305.953 73.494l2.444.188c.773.071 1.714.159 2.791.257 1.081.081 2.294.208 3.619.344l4.274.457c1.514.173 3.102.465 4.756.669 1.651.221 3.362.412 5.107.542l2.635.175 2.663.046c1.779.012 3.554.046 5.3.098 1.746.083 3.466.057 5.13.076 1.662.013 3.27.042 4.794.101 1.524.064 2.965.101 4.296.106 2.66.019 4.882.105 6.438.162l2.448.128.005.112-2.439.207c-1.555.105-3.777.263-6.448.367l-2.083.092c-.72.016-1.463-.007-2.23-.009-1.53-.007-3.144-.048-4.812-.108-1.668-.077-3.395-.093-5.142-.249a220.496 220.496 0 01-5.293-.472c-1.772-.163-3.545-.326-5.289-.488a89.394 89.394 0 00-5.135-.288c-3.337-.138-6.447-.395-9.09-.784a107.118 107.118 0 01-6.367-1.08c-1.53-.308-2.39-.54-2.39-.54l.018-.109zM431.848 70.798l5.14-.062 5.9.002c2.278-.008 4.847.039 7.65.079 2.804.037 5.84.073 9.052.186 3.211.07 6.597.261 10.099.403 3.502.171 7.122.277 10.8.372 3.68.072 7.418.114 11.155.118 3.737 0 7.476.024 11.154.066l10.804.158c3.505.048 6.892.163 10.101.235 3.213.069 6.249.184 9.051.286 5.604.188 10.273.414 13.543.572l5.137.28-.002.112-5.14.048c-3.271.011-7.944.026-13.551-.039-2.803-.023-5.838-.045-9.051-.122-3.212-.071-6.599-.109-10.103-.218l-10.802-.33a970.475 970.475 0 01-11.15-.438 592.465 592.465 0 00-11.15-.384c-3.679-.07-7.3-.128-10.804-.116-3.505-.016-6.892.022-10.104-.051-3.211-.032-6.248-.132-9.05-.222-2.802-.087-5.372-.156-7.648-.266l-5.896-.263-5.137-.295.002-.111zM379.926 77.022s.81-.101 2.228-.229c.708-.072 1.571-.115 2.559-.188.989-.076 2.103-.125 3.321-.183 1.217-.042 2.535-.097 3.93-.103 1.396-.01 2.869.057 4.391.09 1.524.054 3.098.077 4.692-.011 1.598-.076 3.218-.186 4.836-.331a183.07 183.07 0 014.833-.384l4.683-.278c3.037-.167 5.875-.239 8.312-.247 2.435-.04 4.468.001 5.892.023l2.241.075.008.112-2.219.257c-1.415.14-3.436.344-5.867.504-2.431.19-5.27.352-8.315.431l-4.696.105c-1.6.025-3.225.029-4.85.012-1.625-.013-3.25.011-4.847.065a126.01 126.01 0 00-4.689.267c-1.52.102-2.989.233-4.383.287-1.395.056-2.714.06-3.932.073-1.218-.002-2.333-.002-3.325-.035-.991-.029-1.853-.034-2.563-.074-1.423-.064-2.236-.128-2.236-.128l-.004-.11zM474.529 86.813l4.592-.235c1.461-.054 3.235-.117 5.271-.191 2.036-.082 4.333-.122 6.839-.169 2.505-.05 5.22-.108 8.093-.097 2.87-.031 5.901.055 9.032.098 3.134.068 6.372.068 9.661.056 3.288-.041 6.63-.093 9.97-.187a775.17 775.17 0 019.974-.228l9.66-.086c3.134-.027 6.163.017 9.034.021 2.872.013 5.588.099 8.096.164l6.839.203c2.037.124 3.812.232 5.273.323l4.583.329-.007.111h-4.597l-5.267-.041-6.838.049c-2.507.016-5.219.02-8.089 0-2.87-.003-5.899.032-9.03-.001-6.264-.077-12.945-.076-19.627-.232-3.343-.065-6.685-.1-9.973-.081-3.289.038-6.527.086-9.656.202-3.132.085-6.159.226-9.031.254-2.869.069-5.584.064-8.09.062-2.508-.001-4.805.017-6.841-.02l-5.273-.07a8689.34 8689.34 0 01-4.597-.122l-.001-.112zM603.712 136.464s.399-.582 1.142-1.567c.362-.498.837-1.073 1.362-1.75a101.11 101.11 0 011.799-2.241c.676-.806 1.402-1.683 2.21-2.58.804-.897 1.712-1.793 2.623-2.744a42.357 42.357 0 002.728-3.002 83.842 83.842 0 002.596-3.289 140.37 140.37 0 012.554-3.322l2.545-3.156a124.777 124.777 0 014.556-5.55c1.36-1.604 2.551-2.898 3.382-3.807.843-.901 1.337-1.404 1.337-1.404l.09.068s-.382.593-1.075 1.609c-.702 1.009-1.7 2.457-2.971 4.141a120.642 120.642 0 01-4.429 5.681l-2.681 3.049a132.904 132.904 0 01-2.841 3.085 88.104 88.104 0 00-2.801 3.118 77.958 77.958 0 00-2.535 3.17c-.81 1.04-1.566 2.066-2.34 2.993-.771.929-1.535 1.775-2.238 2.562-.711.776-1.358 1.492-1.965 2.099-.602.608-1.112 1.152-1.557 1.578-.883.86-1.408 1.331-1.408 1.331l-.083-.072zM629.334 113.702s.228-.229.689-.623c.451-.411 1.165-.937 2.062-1.631.936-.635 2.062-1.435 3.436-2.208 1.337-.85 2.954-1.599 4.703-2.451.879-.415 1.829-.766 2.796-1.173a25.966 25.966 0 013.056-1.083 107.66 107.66 0 013.281-.976l3.498-.733c.594-.123 1.191-.246 1.793-.372l1.837-.27c1.231-.188 2.479-.356 3.73-.567 1.254-.185 2.536-.252 3.812-.384 1.28-.109 2.561-.334 3.852-.354l3.869-.119c1.288-.022 2.572-.091 3.842.029l3.775.252c1.245.101 2.483.118 3.679.343 2.396.362 4.715.727 6.904 1.106 2.165.5 4.193 1.063 6.068 1.553l2.688.709c.846.247 1.622.568 2.366.824l3.829 1.396 3.312 1.254-.039.105-3.415-.939-3.895-1.122c-.753-.212-1.547-.463-2.395-.683l-2.693-.599-6.054-1.354a328.105 328.105 0 01-6.828-1.101c-1.178-.248-2.398-.292-3.625-.418l-3.73-.341c-1.252-.167-2.523-.149-3.797-.177l-3.84-.104c-2.563.028-5.127.23-7.643.469-1.247.193-2.479.426-3.7.633-.608.11-1.22.2-1.812.337l-1.753.48-3.411.938a99.697 99.697 0 01-3.201 1.089c-.521.178-1.04.33-1.537.52l-1.464.582c-.959.378-1.907.7-2.782 1.089-1.742.797-3.348 1.513-4.721 2.25-1.409.674-2.544 1.422-3.531 1.96-1.908 1.174-2.938 1.948-2.938 1.948l-.073-.084zM545.378 48.237s.144.237.446.646c.292.414.75 1.015 1.379 1.729.313.356.665.75 1.044 1.18.403.408.839.849 1.307 1.32.453.481 1.024.908 1.557 1.422.272.251.555.508.842.771l.936.746c.643.499 1.289 1.051 2.005 1.559.728.494 1.465 1.023 2.224 1.566.739.576 1.581 1.042 2.396 1.593.838.515 1.648 1.123 2.557 1.597 1.796.973 3.628 2.065 5.652 2.818 1 .402 2.006.807 3.018 1.212 1.031.35 2.09.643 3.135.967l3.14.923 3.16.749 3.099.762c1.031.216 2.061.379 3.065.566 2.022.332 3.943.811 5.808 1.04 1.86.251 3.615.524 5.236.775 1.618.287 3.121.39 4.444.545l3.437.383 2.997.38-.005.112-3.021-.047c-.96-.031-2.128-.066-3.467-.108-1.342-.037-2.857-.085-4.495-.297-1.642-.173-3.421-.36-5.302-.593-.469-.061-.948-.102-1.426-.18-.478-.093-.959-.187-1.448-.28l-2.987-.595c-1.01-.216-2.043-.407-3.076-.651l-3.11-.86a1735.33 1735.33 0 01-3.146-.9c-1.032-.38-2.066-.764-3.1-1.145-1.029-.388-2.069-.745-3.086-1.156-1.008-.431-2.011-.859-3.004-1.285-2.024-.776-3.907-1.778-5.804-2.605-.953-.411-1.811-.961-2.693-1.423-.87-.488-1.749-.923-2.519-1.484-.783-.54-1.549-1.062-2.272-1.585-.715-.54-1.36-1.123-2.002-1.648l-.931-.787-.838-.812c-.539-.533-1.063-1.022-1.501-1.54l-1.233-1.433c-.365-.457-.679-.893-.963-1.285-.553-.795-.952-1.442-1.198-1.902-.247-.458-.354-.71-.354-.71l.097-.05zM551.433 79.842s1.222-.077 3.361-.143c1.07-.043 2.368-.047 3.86-.068 1.489-.033 3.171-.004 5.002.017 1.834.012 3.82.053 5.919.152 2.101.066 4.309.271 6.597.417 2.283.2 4.649.318 7.048.458l3.629.163 3.662.125c2.441.08 4.889.167 7.29.334 2.403.146 4.767.326 7.05.535 2.288.183 4.494.425 6.579.713 2.091.239 4.057.572 5.866.89l2.598.448 2.327.511c1.456.333 2.732.579 3.755.92l3.229.968-.031.107-3.295-.646c-1.04-.231-2.325-.416-3.792-.64-.733-.116-1.512-.238-2.334-.369l-2.602-.337a218.6 218.6 0 00-5.859-.698c-1.04-.12-2.109-.242-3.201-.369l-3.349-.349a296.839 296.839 0 00-7.018-.704l-7.253-.705c-2.429-.256-4.867-.403-7.266-.554a173.591 173.591 0 00-7.06-.202c-2.29-.02-4.503.004-6.602-.064-2.098-.021-4.08-.123-5.909-.188-1.829-.069-3.509-.122-4.996-.205l-3.85-.194-3.356-.213v-.11h.001zM608.291 88.761s.233.132.689.335l2.004.707c.904.19 1.991.461 3.233.75.612.184 1.312.198 2.02.32l2.244.318c.783.108 1.596.223 2.44.34.853.041 1.734.106 2.637.171 1.81.137 3.716.356 5.693.55 1.98.101 4.037.098 6.123.069 2.085-.05 4.208-.079 6.318-.242 2.108-.245 4.218-.467 6.294-.665l6.098-.551c.987-.107 1.964-.133 2.911-.272l2.78-.345c1.806-.222 3.518-.399 5.099-.563 3.159-.347 5.805-.564 7.658-.722l2.916-.209.018.111-2.87.539c-1.832.318-4.446.781-7.6 1.25-1.576.244-3.285.51-5.095.753-1.808.264-3.715.524-5.711.611l-6.135.38c-2.092.118-4.213.217-6.334.294-1.063.038-2.13-.023-3.189-.027-1.057 0-2.111.003-3.158.004-2.091.007-4.147.115-6.142.187-1.991-.058-3.926-.082-5.758-.176-.913-.05-1.804-.096-2.662-.163l-2.47-.415c-1.576-.301-3.041-.446-4.293-.836-1.248-.395-2.34-.718-3.224-1.019l-1.972-.96c-.419-.268-.628-.431-.628-.431l.066-.093zM621.663 75.256s1.234.003 3.394.059c2.157.068 5.236.173 8.926.388 1.847.096 3.847.198 5.956.377 2.112.139 4.333.401 6.634.617 2.299.245 4.677.426 7.099.6 2.42.135 4.882.238 7.347.306 2.467.062 4.929.148 7.351.252l7.114.338 6.649.353c2.112.1 4.107.228 5.953.345 3.688.217 6.758.465 8.911.642l3.379.307-.002.112s-1.232.007-3.389.023c-2.159-.006-5.24-.016-8.939-.11-1.851-.038-3.855-.078-5.973-.156-2.122-.047-4.35-.202-6.653-.361l-7.107-.511a430.096 430.096 0 01-7.331-.624 264.889 264.889 0 00-7.332-.572c-2.423-.149-4.807-.283-7.118-.345-2.31-.09-4.544-.125-6.657-.266-2.118-.101-4.113-.265-5.954-.414-1.843-.144-3.532-.271-5.026-.437-1.494-.156-2.799-.271-3.871-.4-2.146-.246-3.369-.415-3.369-.415l.008-.108zM651.312 96.617s.615-.186 1.701-.462c1.081-.293 2.667-.527 4.569-.814.952-.125 1.986-.27 3.087-.372 1.096-.135 2.264-.053 3.466-.07a45.792 45.792 0 003.698-.09 71.603 71.603 0 003.802-.359c1.271-.14 2.545-.346 3.802-.352l3.697-.089c2.399-.046 4.641-.003 6.558.086 1.919.059 3.513.181 4.63.261 1.116.093 1.75.165 1.75.165l-.001.112s-.642.073-1.76.168c-1.116.082-2.714.205-4.626.268a99.954 99.954 0 01-6.533.096c-1.195-.026-2.432-.056-3.686-.084a20.663 20.663 0 00-1.896-.021h-1.911a70.68 70.68 0 00-3.808.092 44.876 44.876 0 00-3.67.346c-1.187.152-2.338.268-3.418.444-1.081.15-2.107.244-3.057.337-.951.08-1.821.155-2.603.19-.776.028-1.452.097-2.013.144-1.118.088-1.762.11-1.762.11l-.016-.106zM638.568 83.328s.525-.034 1.437-.064 2.208-.023 3.763.01c.775.025 1.615.062 2.506.12.887.057 1.821.193 2.789.299 1.935.282 4.015.243 6.087.122 1.038-.064 2.069-.17 3.088-.22l2.985-.138a66.04 66.04 0 015.283-.239c.772-.044 1.477-.121 2.109-.139.627-.028 1.178-.067 1.633-.074.912-.024 1.439-.02 1.439-.02l.02.111s-.502.139-1.39.349c-.892.194-2.167.499-3.722.745a67.077 67.077 0 01-5.33.424c-1.954-.03-4.038 0-6.116-.187-1.041-.083-2.076-.174-3.1-.183a53.057 53.057 0 00-3.005.052c-.977.029-1.922.091-2.816.077-.893-.009-1.735-.096-2.514-.153-3.112-.263-5.15-.781-5.15-.781l.004-.111z"/></g><g><defs><circle id="aG" cx="488.79" cy="456.031" r="407.769"/></defs><clipPath id="aH"><use xlink:href="#aG" overflow="visible"/></clipPath><path clip-path="url(#aH)" fill="#56473C" d="M337.256 140.471s-37.963 16.003-39.824 10.793c-1.861-5.21 37.967-12.33 54.34-30.567"/></g><g><defs><circle id="aI" cx="488.79" cy="456.031" r="407.769"/></defs><clipPath id="aJ"><use xlink:href="#aI" overflow="visible"/></clipPath><g clip-path="url(#aJ)"><path fill="#4D824B" d="M314.533 173.48s-48.723-3.282-27.658 70.31c0 0 7.144-11.073 16.047-16.445 20.37-12.291 40.875-36.575 11.611-53.865z"/><path fill="#84BC58" d="M314.533 173.48s-.235.127-.646.408a18.16 18.16 0 00-1.664 1.367c-.355.296-.708.671-1.093 1.074-.394.396-.81.832-1.208 1.341-.854.968-1.69 2.159-2.626 3.437-.452.649-.874 1.364-1.335 2.081l-.695 1.101-.642 1.183-1.331 2.458-1.26 2.635c-.914 1.761-1.607 3.699-2.431 5.612-.791 1.927-1.425 3.955-2.151 5.943-.707 1.998-1.287 4.041-1.928 6.027-.658 1.983-1.088 4-1.624 5.916-.257.962-.491 1.912-.755 2.834-.22.933-.434 1.846-.645 2.736l-1.168 5.016c-.364 1.555-.608 2.997-.889 4.265-.261 1.271-.491 2.379-.678 3.292l-.618 2.868.36-2.909.444-3.337c.186-1.286.326-2.752.639-4.322l.954-5.083c.17-.902.348-1.829.528-2.776.21-.94.463-1.894.699-2.867.511-1.937.916-3.973 1.55-5.981.618-2.013 1.169-4.083 1.86-6.11.765-2.002 1.432-4.039 2.262-5.979.86-1.928 1.59-3.874 2.543-5.65l1.338-2.643c.497-.832.983-1.646 1.458-2.438l.701-1.169.753-1.091c.502-.709.958-1.413 1.447-2.054l1.45-1.801c.46-.571.977-1.049 1.418-1.53.439-.485.894-.896 1.318-1.272.419-.379.799-.731 1.184-1.007 1.475-1.171 2.481-1.575 2.481-1.575z"/><path fill="#84BC58" d="M293.981 210.624s.617.786 1.442 1.995a99.04 99.04 0 011.39 2.064c.509.75 1.022 1.564 1.569 2.353.267.396.52.808.8 1.184.279.378.52.777.795 1.126.521.724 1.028 1.387 1.498 1.917.229.278.451.516.661.713.209.201.38.403.554.516l.528.428s-.234-.06-.66-.196c-.22-.057-.454-.184-.724-.333a4.75 4.75 0 01-.875-.558 7.129 7.129 0 01-.943-.776 9.682 9.682 0 01-.954-.965c-.645-.687-1.226-1.495-1.792-2.309a28.019 28.019 0 01-1.472-2.504 24.232 24.232 0 01-1.048-2.299c-.557-1.376-.769-2.356-.769-2.356zM297.894 196.703s.488 1.17 1.258 2.859c.398.839.861 1.812 1.413 2.816.267.507.566 1.017.881 1.525.291.523.645 1.012.991 1.507.322.512.73.952 1.085 1.426.404.424.78.867 1.179 1.259.437.342.81.75 1.229 1.041.431.269.812.588 1.207.806.405.195.773.389 1.108.564.336.163.654.233.908.334l.816.297s-.311-.003-.869-.035c-.276-.03-.63-.012-1.008-.105a31.204 31.204 0 01-1.278-.355c-.463-.155-.925-.417-1.431-.665-.5-.262-.96-.636-1.46-.992-.46-.398-.931-.825-1.373-1.29-.395-.498-.853-.97-1.208-1.509-.734-1.063-1.369-2.185-1.836-3.289-.267-.537-.432-1.095-.63-1.604a21.079 21.079 0 01-.445-1.473c-.489-1.841-.537-3.117-.537-3.117zM305.447 183.528s.029.351.114.952c.043.299.098.664.159 1.08.057.415.168.879.247 1.383.126.5.22 1.045.38 1.605.147.564.319 1.152.529 1.746.171.608.47 1.186.706 1.796.277.591.587 1.18.931 1.738.381.534.692 1.125 1.155 1.578.217.239.425.481.628.726.229.217.473.412.703.616.237.195.455.413.696.585l.736.471.703.452c.246.113.484.22.713.324.465.191.875.442 1.271.561l1.036.321.913.31-.96-.046c-.31-.023-.685-.053-1.116-.087-.434-.038-.896-.205-1.418-.337l-.812-.227c-.266-.116-.535-.256-.814-.393l-.863-.427c-.291-.154-.54-.385-.82-.582-.271-.209-.558-.41-.83-.637a30.55 30.55 0 01-.739-.774c-.525-.502-.892-1.137-1.321-1.728a18.674 18.674 0 01-.979-1.928c-.254-.664-.5-1.319-.648-1.974-.192-.645-.29-1.285-.378-1.889-.108-.602-.117-1.183-.162-1.71-.082-2.123.24-3.505.24-3.505zM304.152 184.082s-.523.543-1.432 1.158c-.45.315-.997.646-1.605.959-.604.325-1.279.603-1.965.867-.697.233-1.409.443-2.101.555-.351.051-.683.103-1.013.108-.331.003-.631.029-.926-.026-.29-.042-.546-.058-.776-.157-.226-.087-.42-.132-.561-.241-.283-.203-.411-.32-.411-.32l.494.068c.14.033.343-.019.542-.015.199.008.44-.072.686-.104.245-.028.519-.14.8-.194.283-.065.579-.191.888-.266.31-.093.62-.229.947-.317l.978-.35c1.318-.467 2.652-.944 3.688-1.254 1.032-.324 1.767-.471 1.767-.471zM299.451 195.01s-.609.687-1.699 1.49c-.544.402-1.201.843-1.942 1.251-.731.426-1.561.79-2.402 1.132-.853.313-1.729.575-2.572.738-.845.159-1.652.212-2.34.206a16.98 16.98 0 01-.938-.085c-.276-.013-.515-.104-.708-.144-.388-.102-.6-.171-.6-.171s.23-.042.615-.094c.193-.032.423-.038.687-.103.262-.055.557-.116.873-.168.315-.086.654-.178 1.012-.255.356-.102.726-.23 1.113-.328.765-.26 1.581-.52 2.381-.844.403-.153.812-.296 1.203-.467l1.164-.472 2.077-.856c1.218-.518 2.076-.83 2.076-.83zM293.223 211.822s-.287.587-.87 1.324a12.28 12.28 0 01-1.051 1.202c-.395.428-.874.826-1.341 1.233-.487.386-.998.75-1.49 1.062-.499.31-1 .556-1.427.753-.436.191-.834.291-1.1.366-.271.069-.429.096-.429.096s.433-.502 1.107-1.106c.323-.335.717-.685 1.143-1.057.412-.396.893-.757 1.349-1.156a39.79 39.79 0 011.418-1.084c.463-.335.909-.634 1.306-.878.787-.494 1.385-.755 1.385-.755z"/></g></g><g><defs><circle id="aK" cx="488.79" cy="456.031" r="407.769"/></defs><clipPath id="aL"><use xlink:href="#aK" overflow="visible"/></clipPath><g clip-path="url(#aL)"><path fill="#4D824B" d="M297.872 148.854s-34.642-26.767-55.466 40.28c0 0 10.812-4.956 20.102-4.656 21.262.689 48.572-7.774 35.364-35.624z"/><path fill="#84BC58" d="M297.872 148.854s-.976-.083-2.633.216c-.417.049-.868.17-1.361.286-.495.106-1.024.244-1.578.437-1.125.321-2.342.834-3.683 1.348-1.298.621-2.743 1.206-4.166 2.047-.719.404-1.467.798-2.211 1.237-.734.458-1.485.925-2.248 1.399l-1.157.714-1.133.79-2.301 1.61c-1.538 1.099-3.017 2.332-4.541 3.5-1.507 1.192-2.953 2.463-4.412 3.671-1.463 1.203-2.783 2.526-4.126 3.731l-1.961 1.795-1.827 1.778-3.345 3.26c-1.035 1.011-1.931 1.99-2.763 2.822l-2.129 2.183-1.875 1.887 1.699-2.046 1.972-2.33c.771-.892 1.598-1.939 2.602-2.987l3.213-3.415 1.758-1.864 1.934-1.85c1.334-1.232 2.644-2.583 4.102-3.817 1.453-1.238 2.891-2.543 4.4-3.766 1.559-1.161 3.068-2.384 4.641-3.474.792-.537 1.578-1.069 2.354-1.597l1.158-.781 1.185-.708 2.312-1.369c.773-.414 1.553-.782 2.299-1.16 1.476-.787 2.976-1.325 4.316-1.894 1.382-.48 2.652-.907 3.817-1.148a13.591 13.591 0 011.628-.33c.507-.082.97-.171 1.396-.192 1.698-.174 2.664.017 2.664.017z"/><path fill="#84BC58" d="M264.147 167.178s.072.91.089 2.247c.012.67.019 1.448.012 2.276.006.83-.015 1.709.001 2.587.003.438-.015.879.008 1.307.02.429 0 .855.032 1.261.029.816.073 1.578.161 2.221.033.327.076.622.138.879.057.259.082.5.155.674l.183.593s-.146-.165-.399-.486c-.139-.157-.248-.373-.376-.625a4.24 4.24 0 01-.376-.87 6.407 6.407 0 01-.317-1.071 9.206 9.206 0 01-.232-1.217c-.137-.848-.17-1.758-.188-2.665a26.2 26.2 0 01.147-2.649c.093-.84.217-1.62.361-2.281.27-1.326.601-2.181.601-2.181zM273.965 158.423l-.141.778c-.106.487-.196 1.198-.332 2.033-.12.84-.254 1.813-.345 2.856-.087 1.042-.159 2.151-.113 3.251-.023.554.07 1.093.096 1.633.078.531.152 1.054.243 1.559.152.483.236.977.395 1.417.187.425.319.856.496 1.229.208.352.385.689.544.994.161.303.375.511.518.715.3.394.468.639.468.639s-.233-.16-.636-.473c-.188-.166-.466-.332-.704-.598-.238-.265-.508-.57-.789-.919-.26-.359-.483-.79-.735-1.237-.23-.457-.397-.972-.591-1.498-.132-.539-.286-1.098-.371-1.675-.046-.578-.157-1.167-.146-1.755a17.454 17.454 0 01.269-3.422c.07-.542.222-1.048.327-1.535.127-.483.261-.934.4-1.345.274-.823.575-1.482.783-1.941.212-.459.364-.706.364-.706zM286.124 152.056s-.139.285-.386.785c-.126.246-.264.552-.417.903-.162.347-.302.759-.493 1.184-.154.443-.35.909-.511 1.416a20.793 20.793 0 00-.471 1.597c-.172.55-.241 1.14-.364 1.725a16.695 16.695 0 00-.179 1.793c.024.597-.053 1.207.069 1.786.042.291.078.58.107.869.045.285.143.554.21.827l.219.801.315.731.298.701c.127.211.251.414.371.61.253.381.436.778.667 1.078l.622.767c.345.433.536.697.536.697s-.26-.181-.7-.527c-.222-.176-.49-.391-.796-.636-.304-.253-.576-.608-.899-.978l-.495-.59-.411-.714-.434-.764c-.122-.272-.207-.568-.313-.861-.095-.296-.222-.593-.294-.905a23.097 23.097 0 01-.166-.96c-.144-.646-.085-1.313-.118-1.977.05-.658.118-1.319.238-1.955.137-.63.283-1.251.498-1.825.175-.586.422-1.122.654-1.629.219-.511.498-.96.727-1.384.499-.83.985-1.47 1.335-1.908.347-.437.581-.657.581-.657zM284.885 151.836s-.657.155-1.639.173a12.318 12.318 0 01-1.671-.063c-.611-.051-1.254-.175-1.897-.314-.636-.167-1.271-.36-1.844-.621-.287-.136-.561-.26-.81-.421-.249-.162-.484-.293-.676-.48-.195-.175-.378-.318-.499-.507-.123-.178-.246-.307-.293-.461-.107-.292-.143-.444-.143-.444l.333.297c.086.098.264.158.41.259.143.105.36.165.559.263.195.101.453.155.69.251.241.092.526.142.792.238.558.146 1.155.312 1.765.447 1.213.297 2.444.594 3.37.869.929.263 1.553.514 1.553.514zM275.962 157.897s-.791.223-1.998.297c-.604.038-1.311.048-2.066-.008-.757-.037-1.558-.169-2.353-.327a14.542 14.542 0 01-2.286-.713c-.709-.3-1.337-.657-1.846-1.005-.248-.188-.465-.371-.656-.53-.199-.147-.33-.335-.454-.461-.237-.269-.358-.428-.358-.428l.504.234c.16.071.333.182.56.263.224.089.472.188.733.307.278.091.575.19.881.308.314.1.653.185.99.302.697.181 1.434.386 2.191.537.75.172 1.511.32 2.227.455l1.973.373c1.164.211 1.958.396 1.958.396zM262.988 167.72s-.5.305-1.297.581a10.72 10.72 0 01-1.373.398c-.506.132-1.059.199-1.609.279a15.31 15.31 0 01-1.638.077 11.3 11.3 0 01-1.44-.128c-.421-.069-.77-.189-1.006-.264-.238-.081-.369-.139-.369-.139s.572-.167 1.37-.295c.406-.096.873-.167 1.374-.24.502-.1 1.039-.139 1.576-.217.54-.054 1.081-.101 1.592-.128.512-.027.994-.036 1.41-.027.832.01 1.41.103 1.41.103z"/></g></g></g><g clip-path="url(#b)"><path fill="#E5BDBD" d="M486.927 65.062l-.274 1.167c-.18.717-.447 1.739-.816 3.019a115.448 115.448 0 01-3.534 10.362c-1.678 4.208-3.868 9.065-6.98 13.988-1.555 2.458-3.367 4.923-5.512 7.247-2.16 2.308-4.68 4.482-7.647 6.11-2.946 1.627-6.35 2.641-9.658 2.698-3.314.12-6.413-.655-9.118-1.707-5.405-2.223-9.384-5.558-12.561-8.482a83.466 83.466 0 01-7.051-7.611c-.802-.95-1.386-1.736-1.805-2.251l-.63-.8.759.68c.502.437 1.206 1.106 2.154 1.902a82.097 82.097 0 008.089 6.165c1.755 1.125 3.676 2.296 5.782 3.303 2.105 1.001 4.383 1.866 6.735 2.373 2.353.466 4.77.601 7 .104 2.241-.447 4.273-1.496 6.06-2.936 1.789-1.443 3.323-3.303 4.642-5.328 1.306-2.043 2.403-4.24 3.318-6.467 1.835-4.455 3-8.952 3.81-12.837.801-3.894 1.241-7.2 1.487-9.486.121-1.144.196-2.034.237-2.623l.041-.651.005-.186a7.865 7.865 0 018.098-7.626 7.865 7.865 0 017.431 9.626l-.062.247z"/></g><g clip-path="url(#b)"><path fill="#EDEDED" d="M480.811 371.546c-14.513.2-26.65 7.765-40.954 11.574a79.641 79.641 0 00-10.365 8.229c-10.705-1.685-20.194 9.34-14.977 19.057-.271.481-.536.96-.792 1.444-1.865 3.48-3.915 7.596-10.179 9.257 2.813 4.616 4.474 8.053 7.771 9.587-1.97 2.02-3.105 4.856-7.579 5.686 1.342 3.26 3.451 4.793 6.134 7.542-1.674.979-1.884 2.987-4.953 4.521 2.493 3.707 6.231 2.125 7.766 10.114 6.479 37.705 25.5 49.466 33.679 70.685 8.141 21.118 23.395 55.915 43.408 55.915 26.321 0 34.139-39.445 42.485-54.895 8.91-16.497 29.009-36.211 34.009-60.793.678-3.327 3.697-18.006 4.527-20.114.83-2.11 2.364-2.303 3.387-3.963-1.404-1.407-3.389-4.105-2.94-5.336 1.44-.958 3.062-2.685 4.506-5.176-2.395-.577-7.177-3.847-7.218-5.717 4.381-2.835 8.562-5.884 9.423-10.462-8.243-2.324-11.845-9.459-13.398-12.207-.17-.303-.349-.606-.523-.906 4.302-9.213-2.312-20.813-16.104-17.847-3.388-2.509-7.169-4.792-11.384-6.816-13.957-6.701-30.935-9.717-55.729-9.379z"/><path fill="#666" d="M439.857 383.121s32.582 6.304 48.347 85.282c0 0 12.739-92.416 48.349-87.505-.001-.001-51.122-28.19-96.696 2.223z"/><linearGradient id="aM" gradientUnits="userSpaceOnUse" x1="-672.083" y1="621.592" x2="-691.524" y2="637.907" gradientTransform="rotate(169.546 -55.717 558.243)"><stop offset="0" stop-color="#ededed"/><stop offset="1" stop-color="#545454"/></linearGradient><path fill="url(#aM)" d="M559.964 358.775s-7.851 4.958-14.55 13.733c-6.701 8.772-16.73 12.445-15.477 14.032 1.017 1.286 5.882-1.227 9.962 2.576 4.081 3.801 20.297-28.694 20.065-30.341z"/><path fill="#161616" d="M564.41 406.571s14.236-4.707 16.77-13.491c2.541-8.787 8.071-29.561-6.487-35.195-14.557-5.635-20.764 5.825-24.933 17.032-4.173 11.209-9.859 14.199-9.859 14.199s4.126 4.051 8.876 1.613c1.05 3.582-.443 6.068-.443 6.068s5.579-.767 8.338-4.136c0 0 .23 4.764-1.812 7.093 2.215.157 7.661.927 8.021-1.48 0 0-.303 5.254-3.777 6.156l5.306 2.141z"/><linearGradient id="aN" gradientUnits="userSpaceOnUse" x1="290.773" y1="709.248" x2="271.332" y2="725.562" gradientTransform="matrix(1 0 0 -1 144 1094.456)"><stop offset="0" stop-color="#ededed"/><stop offset="1" stop-color="#545454"/></linearGradient><path fill="url(#aN)" d="M409.483 364.082s8.622 3.453 16.8 10.865c8.18 7.413 18.71 9.206 17.766 10.994-.767 1.45-6.006-.139-9.33 4.341-3.323 4.476-25.164-24.539-25.236-26.2z"/><path fill="#161616" d="M413.783 411.889s-14.852-2.045-18.942-10.225c-4.09-8.181-13.293-27.608 0-35.789 13.294-8.181 21.472 1.962 27.608 12.229 6.135 10.267 12.27 12.176 12.27 12.176s-3.321 4.73-8.434 3.196c-.385 3.712 1.534 5.886 1.534 5.886s-5.623.257-8.947-2.555c0 0 .637 4.726 3.066 6.646-2.148.557-7.363 2.302-8.155 0 0 0 1.253 5.111 4.833 5.367l-4.833 3.069z"/><radialGradient id="aO" cx="308.869" cy="606.625" r="25.952" gradientTransform="matrix(1 0 0 -1 144 1094.456)" gradientUnits="userSpaceOnUse"><stop offset="0" stop-color="#545454"/><stop offset="1" stop-color="#ededed"/></radialGradient><path fill="url(#aO)" d="M439.857 454.599s-15.222 41.395 28.492 66.463c2.044-56.238-28.492-66.463-28.492-66.463z"/><radialGradient id="aP" cx="-446.919" cy="657.885" r="25.951" gradientTransform="rotate(-173.668 33.074 544.585)" gradientUnits="userSpaceOnUse"><stop offset="0" stop-color="#545454"/><stop offset="1" stop-color="#ededed"/></radialGradient><path fill="url(#aP)" d="M539.261 453.425s10.555 42.824-35.658 62.91c4.178-56.121 35.658-62.91 35.658-62.91z"/><linearGradient id="aQ" gradientUnits="userSpaceOnUse" x1="346.104" y1="517.842" x2="346.104" y2="532.624" gradientTransform="matrix(1 0 0 -1 144 1094.456)"><stop offset="0" stop-color="#f2a5a5"/><stop offset="1" stop-color="#ededed"/></linearGradient><path fill="url(#aQ)" d="M475.728 575.291s12.381-13.582 14.043-24.959c0 0 5.037 14.827 14.709 24.328"/><ellipse fill="#F2A5A5" cx="490.397" cy="579.472" rx="16.297" ry="9.586"/><linearGradient id="aR" gradientUnits="userSpaceOnUse" x1="331.905" y1="515.058" x2="340.94" y2="509.541" gradientTransform="matrix(1 0 0 -1 144 1094.456)"><stop offset="0" stop-color="#f2a5a5"/><stop offset="1" stop-color="#977"/></linearGradient><path fill="url(#aR)" d="M474.316 578.157s3.343 2.83 8.206 3.271c4.86.442 3.65 4.819.711 4.682-2.819-.133-2.128-2.738-4.055-3.976-.496-.314-4.862-3.977-4.862-3.977z"/><linearGradient id="aS" gradientUnits="userSpaceOnUse" x1="-547.017" y1="549.811" x2="-537.982" y2="544.295" gradientTransform="rotate(-175.56 -20.57 544.247)"><stop offset="0" stop-color="#f2a5a5"/><stop offset="1" stop-color="#977"/></linearGradient><path fill="url(#aS)" d="M506.412 578.647s-3.555 2.561-8.435 2.621c-4.883.062-4.016 4.521-1.075 4.614 2.819.085 2.335-2.568 4.351-3.65.518-.275 5.159-3.585 5.159-3.585z"/><linearGradient id="aT" gradientUnits="userSpaceOnUse" x1="239.016" y1="545.048" x2="317.054" y2="545.048" gradientTransform="matrix(1 0 0 -1 144 1094.456)"><stop offset="0" stop-color="#fff"/><stop offset="1" stop-color="#a8a8a8"/></linearGradient><path fill="url(#aT)" d="M460.566 543.174l-28.509 12.749-.009.004a.514.514 0 01-.424-.002l-20.643-9.646.335-.039-14.3 10.976a.144.144 0 01-.134.021l-13.028-4.733 13.122 4.468-.134.023 14.073-11.266a.322.322 0 01.33-.041l.005.004 20.805 9.286-.433.002 28.243-13.328a.837.837 0 11.714 1.513.073.073 0 01-.013.009z"/><linearGradient id="aU" gradientUnits="userSpaceOnUse" x1="247.547" y1="562.511" x2="313.638" y2="562.511" gradientTransform="matrix(1 0 0 -1 144 1094.456)"><stop offset="0" stop-color="#fff"/><stop offset="1" stop-color="#a8a8a8"/></linearGradient><path fill="url(#aU)" d="M456.94 535.651l-27.681 4.366-.011.002a.518.518 0 01-.477-.181l-11.957-14.546.379.087-15.319 6.54a.135.135 0 01-.145-.02l-9.344-8.034 9.522 7.823-.144-.022 15.169-6.883a.316.316 0 01.375.084l.004.003 12.262 14.294-.489-.18 27.577-4.986a.837.837 0 11.298 1.646c-.006.002-.014.007-.019.007z"/><linearGradient id="aV" gradientUnits="userSpaceOnUse" x1="268.999" y1="527.701" x2="322.146" y2="527.701" gradientTransform="scale(1 -1) rotate(-8.603 -6902.722 -958.565)"><stop offset="0" stop-color="#fff"/><stop offset="1" stop-color="#a8a8a8"/></linearGradient><path fill="url(#aV)" d="M465.698 552.497l-15.633 17.236-.008.009a.508.508 0 01-.494.157l-18.668-4.194.345-.149-10.044 16.252a.135.135 0 01-.13.066l-12.396-1.253 12.42.978-.13.065 9.726-16.443a.322.322 0 01.339-.152l.006.002 18.75 3.805-.502.166 15.162-17.654a.837.837 0 111.27 1.091c-.003.005-.008.014-.013.018z"/><linearGradient id="aW" gradientUnits="userSpaceOnUse" x1="446.022" y1="543.44" x2="367.986" y2="543.44" gradientTransform="matrix(1 0 0 -1 144 1094.456)"><stop offset="0" stop-color="#fff"/><stop offset="1" stop-color="#a8a8a8"/></linearGradient><path fill="url(#aW)" d="M513.172 543.261l28.245 13.327-.434-.002 20.802-9.286.007-.004a.32.32 0 01.329.044l14.074 11.263-.132-.023 13.12-4.469-13.026 4.734a.14.14 0 01-.136-.022l-14.3-10.975.334.039-20.641 9.646a.517.517 0 01-.422.004l-.012-.006-28.51-12.747c-.421-.189-.61-.685-.421-1.107a.836.836 0 011.105-.422c.008-.001.014.004.018.006z"/><g><linearGradient id="aX" gradientUnits="userSpaceOnUse" x1="437.493" y1="560.902" x2="371.403" y2="560.902" gradientTransform="matrix(1 0 0 -1 144 1094.456)"><stop offset="0" stop-color="#fff"/><stop offset="1" stop-color="#a8a8a8"/></linearGradient><path fill="url(#aX)" d="M516.38 535.607l27.575 4.987-.488.179 12.259-14.292.003-.005a.326.326 0 01.376-.083l15.174 6.886-.145.019 9.52-7.822-9.343 8.034a.14.14 0 01-.144.021l-15.324-6.542.38-.087-11.953 14.546a.517.517 0 01-.478.181l-.014-.003-27.68-4.367a.837.837 0 11.262-1.652h.02z"/></g><g><linearGradient id="aY" gradientUnits="userSpaceOnUse" x1="418.477" y1="527.783" x2="365.323" y2="527.783" gradientTransform="scale(1 -1) rotate(5.354 12164.358 1535.86)"><stop offset="0" stop-color="#fff"/><stop offset="1" stop-color="#a8a8a8"/></linearGradient><path fill="url(#aY)" d="M510.647 550.198l14.136 18.487-.491-.194 18.938-2.736.007-.002a.321.321 0 01.329.17l8.777 16.97-.124-.075 12.454-.269-12.446.547a.135.135 0 01-.127-.072l-9.109-16.796.339.168-18.876 3.131a.509.509 0 01-.484-.185l-.008-.01-14.632-18.098a.837.837 0 011.301-1.053l.016.017z"/></g><g><linearGradient id="aZ" gradientUnits="userSpaceOnUse" x1="286.93" y1="650.715" x2="243.678" y2="650.715" gradientTransform="matrix(1 0 0 -1 144 1094.456)"><stop offset="0" stop-color="#a8a8a8"/><stop offset="1" stop-color="#fff"/></linearGradient><path fill="url(#aZ)" d="M429.909 456.972s-.116-.16-.33-.463a39.87 39.87 0 00-.961-1.271c-.416-.551-.963-1.19-1.57-1.938-.642-.718-1.327-1.564-2.154-2.422a863.85 863.85 0 01-1.266-1.353c-.456-.45-.925-.916-1.409-1.396-.949-.979-2.046-1.908-3.137-2.918-1.136-.957-2.304-1.957-3.545-2.907-1.263-.917-2.5-1.918-3.851-2.753l-1.989-1.304c-.67-.418-1.368-.786-2.044-1.177-.682-.382-1.35-.779-2.026-1.138l-2.048-.975c-.676-.313-1.33-.65-1.989-.93-.669-.255-1.325-.508-1.963-.751l-1.86-.712c-.604-.222-1.211-.362-1.781-.536-1.148-.324-2.196-.647-3.136-.887l-2.468-.469-2.152-.409 2.161.361 2.484.416c.945.22 2.002.521 3.161.821.576.163 1.188.291 1.799.498.607.219 1.236.443 1.883.675l1.99.712c.669.266 1.331.59 2.019.89.685.307 1.379.621 2.082.937.689.347 1.37.73 2.064 1.099.689.38 1.401.735 2.085 1.143l2.034 1.27c1.38.812 2.65 1.794 3.944 2.692 1.272.93 2.474 1.914 3.644 2.856 1.122.997 2.253 1.91 3.232 2.878l1.457 1.381c.453.465.891.911 1.311 1.343.854.846 1.567 1.689 2.236 2.404.632.746 1.203 1.381 1.639 1.935.446.544.79.981 1.02 1.29l.345.462a.557.557 0 11-.894.669l-.005-.008-.012-.015z"/></g><g><linearGradient id="ba" gradientUnits="userSpaceOnUse" x1="295.403" y1="663.911" x2="238.018" y2="663.911" gradientTransform="matrix(1 0 0 -1 144 1094.456)"><stop offset="0" stop-color="#a8a8a8"/><stop offset="1" stop-color="#fff"/></linearGradient><path fill="url(#ba)" d="M438.326 453.609s-.424-1.071-1.339-2.915c-.905-1.841-2.297-4.431-4.179-7.415a87.714 87.714 0 00-3.19-4.716c-1.171-1.65-2.5-3.318-3.897-5.024-1.433-1.677-2.934-3.397-4.57-5.039-1.607-1.67-3.347-3.26-5.115-4.814-.902-.758-1.809-1.51-2.725-2.242-.941-.7-1.849-1.439-2.804-2.097a74.435 74.435 0 00-5.714-3.705 72.3 72.3 0 00-5.631-2.981l-2.691-1.218-2.564-1.023a82.945 82.945 0 00-4.572-1.563c-1.387-.383-2.583-.77-3.593-.995l-3.166-.732 3.179.685c1.012.211 2.215.582 3.609.943a84.81 84.81 0 014.604 1.498l2.587.988 2.717 1.182a72.112 72.112 0 015.699 2.912 73.686 73.686 0 015.799 3.639c.97.649 1.895 1.377 2.852 2.069.932.724 1.858 1.466 2.775 2.217 1.804 1.538 3.58 3.115 5.225 4.772 1.672 1.632 3.211 3.342 4.681 5.011 1.435 1.701 2.801 3.364 4.007 5.011a87.69 87.69 0 013.293 4.715c3.904 5.973 5.757 10.412 5.757 10.412l.002.007a.557.557 0 11-1.03.429c-.004-.003-.005-.007-.006-.011z"/></g><g><linearGradient id="bb" gradientUnits="userSpaceOnUse" x1="309.982" y1="656.168" x2="260.164" y2="680.237" gradientTransform="matrix(1 0 0 -1 144 1094.456)"><stop offset="0" stop-color="#a8a8a8"/><stop offset="1" stop-color="#fff"/></linearGradient><path fill="url(#bb)" d="M446.547 451.507s-1.356-3.658-3.825-8.992c-.643-1.321-1.289-2.774-2.063-4.27a127.675 127.675 0 00-2.442-4.695c-.85-1.628-1.807-3.266-2.774-4.932-.942-1.684-2.04-3.307-3.061-4.979-1.073-1.636-2.191-3.246-3.286-4.833-1.172-1.53-2.275-3.079-3.436-4.501-1.197-1.39-2.292-2.794-3.447-4.02-1.172-1.208-2.251-2.381-3.301-3.409l-2.99-2.676a11.514 11.514 0 00-1.298-1.054l-1.141-.848-2.167-1.609a3861.674 3861.674 0 003.352 2.4c.427.294.877.627 1.318 1.032l3.045 2.629c1.07 1.012 2.173 2.167 3.371 3.359 1.182 1.209 2.303 2.596 3.53 3.972 1.191 1.408 2.324 2.941 3.529 4.457 1.126 1.573 2.279 3.17 3.387 4.793 1.055 1.66 2.186 3.273 3.162 4.946 1.002 1.656 1.994 3.285 2.876 4.905.92 1.599 1.751 3.176 2.535 4.675.803 1.488 1.481 2.937 2.149 4.253 2.576 5.309 4.018 8.995 4.018 8.995a.56.56 0 11-1.041.402z"/></g><g><linearGradient id="bc" gradientUnits="userSpaceOnUse" x1="401.381" y1="650.793" x2="444.633" y2="650.793" gradientTransform="matrix(1 0 0 -1 144 1094.456)"><stop offset="0" stop-color="#a8a8a8"/><stop offset="1" stop-color="#fff"/></linearGradient><path fill="url(#bc)" d="M545.492 456.251l.347-.464c.229-.308.573-.744 1.019-1.289.436-.554 1.005-1.188 1.639-1.934.668-.716 1.381-1.56 2.236-2.405l1.311-1.343c.471-.445.957-.906 1.457-1.381.98-.968 2.112-1.884 3.234-2.879 1.168-.942 2.37-1.927 3.642-2.857 1.297-.897 2.563-1.879 3.944-2.692l2.034-1.269c.683-.408 1.396-.763 2.083-1.143.695-.37 1.377-.752 2.067-1.098.702-.317 1.397-.629 2.083-.937.685-.301 1.348-.625 2.017-.891l1.991-.713c.646-.231 1.273-.457 1.882-.674.611-.209 1.224-.336 1.8-.5 1.16-.3 2.213-.601 3.159-.821l2.483-.416c1.377-.231 2.164-.361 2.164-.361l-2.154.408-2.469.47c-.94.24-1.987.562-3.136.886-.569.173-1.178.314-1.78.536-.602.229-1.224.467-1.859.712l-1.965.752c-.659.279-1.313.615-1.987.93-.674.318-1.356.645-2.048.975-.676.357-1.346.754-2.026 1.136-.676.392-1.373.759-2.045 1.178l-1.989 1.305c-1.35.835-2.585 1.838-3.849 2.753-1.238.95-2.408 1.951-3.546 2.907-1.09 1.012-2.188 1.94-3.138 2.918l-1.409 1.396-1.267 1.353c-.824.855-1.512 1.703-2.155 2.421-.608.748-1.156 1.387-1.57 1.938-.427.545-.749.975-.959 1.271l-.331.463-.01.011a.557.557 0 11-.9-.652z"/></g><g><linearGradient id="bd" gradientUnits="userSpaceOnUse" x1="392.907" y1="663.985" x2="450.29" y2="663.985" gradientTransform="matrix(1 0 0 -1 144 1094.456)"><stop offset="0" stop-color="#a8a8a8"/><stop offset="1" stop-color="#fff"/></linearGradient><path fill="url(#bd)" d="M536.952 453.11s1.851-4.44 5.755-10.412a90.102 90.102 0 013.293-4.716c1.206-1.646 2.573-3.311 4.008-5.011 1.47-1.669 3.01-3.379 4.682-5.01 1.645-1.659 3.42-3.235 5.224-4.774.918-.75 1.843-1.493 2.776-2.215.957-.691 1.882-1.421 2.852-2.07a73.474 73.474 0 015.802-3.639 72.438 72.438 0 015.698-2.912l2.719-1.182 2.585-.987a83.091 83.091 0 014.604-1.498c1.396-.363 2.597-.732 3.608-.944l3.178-.685-3.166.731c-1.008.226-2.205.613-3.592.997a84.87 84.87 0 00-4.571 1.562l-2.567 1.023c-.867.395-1.764.8-2.688 1.218a73 73 0 00-5.633 2.981 73.928 73.928 0 00-5.713 3.705c-.956.657-1.862 1.396-2.806 2.097-.915.732-1.824 1.484-2.724 2.242-1.768 1.556-3.509 3.145-5.115 4.815-1.636 1.642-3.137 3.36-4.568 5.037-1.398 1.708-2.729 3.376-3.9 5.024a87.884 87.884 0 00-3.189 4.717 81.664 81.664 0 00-4.179 7.415c-.914 1.843-1.339 2.915-1.339 2.915a.557.557 0 11-1.037-.41c0-.003 0-.005.003-.007v-.007z"/></g><g><linearGradient id="be" gradientUnits="userSpaceOnUse" x1="378.326" y1="656.242" x2="428.145" y2="680.311" gradientTransform="matrix(1 0 0 -1 144 1094.456)"><stop offset="0" stop-color="#a8a8a8"/><stop offset="1" stop-color="#fff"/></linearGradient><path fill="url(#be)" d="M528.721 451.033s1.442-3.687 4.018-8.996c.669-1.316 1.345-2.765 2.147-4.253.785-1.498 1.616-3.075 2.536-4.676.886-1.618 1.876-3.247 2.879-4.904.975-1.673 2.106-3.287 3.162-4.945 1.105-1.625 2.257-3.222 3.385-4.794 1.203-1.516 2.337-3.05 3.528-4.457 1.227-1.375 2.349-2.762 3.53-3.972 1.196-1.191 2.301-2.348 3.369-3.359l3.046-2.628c.441-.406.891-.739 1.32-1.032.421-.302.81-.579 1.155-.829l2.196-1.571-2.166 1.609-1.141.848c-.422.3-.862.641-1.297 1.053-.893.797-1.896 1.696-2.992 2.675-1.047 1.029-2.128 2.202-3.3 3.41-1.155 1.226-2.25 2.629-3.447 4.02-1.16 1.422-2.264 2.971-3.435 4.5-1.096 1.587-2.214 3.196-3.287 4.833-1.02 1.671-2.116 3.296-3.059 4.979-.969 1.667-1.927 3.305-2.776 4.932-.888 1.607-1.688 3.192-2.44 4.696-.772 1.495-1.422 2.95-2.062 4.269-2.472 5.335-3.828 8.992-3.828 8.992a.557.557 0 11-1.047-.388c.001-.002.003-.01.006-.012z"/></g></g><g clip-path="url(#b)"><ellipse fill="#161616" cx="453.606" cy="487.991" rx="10.736" ry="11.248"/><circle fill="#FFF" cx="446.896" cy="485.644" r="2.347"/><circle fill="#FFF" cx="445.891" cy="490.803" r="1.342"/><g><ellipse transform="rotate(-83.321 520.78 487.974)" fill="#161616" cx="520.766" cy="487.966" rx="11.25" ry="10.738"/><circle fill="#FFF" cx="514.363" cy="484.881" r="2.344"/><circle fill="#FFF" cx="512.766" cy="489.887" r="1.342"/></g></g></g></switch></svg>