<?xml version="1.0" encoding="utf-8"?>
<!-- Generator: Adobe Illustrator 22.0.1, SVG Export Plug-In . SVG Version: 6.00 Build 0)  -->
<svg version="1.1" id="Layer_1" xmlns="http://www.w3.org/2000/svg" xmlns:xlink="http://www.w3.org/1999/xlink" x="0px" y="0px"
	 viewBox="0 0 48 48" style="enable-background:new 0 0 48 48;" xml:space="preserve">
<style type="text/css">
	.st0{fill:none;}
	.st1{fill:#231F20;}
</style>
<path class="st0" d="M0,0h48v48H0V0z"/>
<path class="st1" d="M30,2H18v4h12V2z M22,28h4V16h-4V28z M38.1,14.8l2.8-2.8c-0.9-1-1.8-2-2.8-2.8L35.2,12c-3.1-2.5-7-4-11.2-4
	C14.1,8,6,16.1,6,26s8,18,18,18s18-8.1,18-18C42,21.8,40.5,17.9,38.1,14.8z M24,40c-7.7,0-14-6.3-14-14s6.3-14,14-14s14,6.3,14,14
	S31.7,40,24,40z"/>
</svg>
