<?xml version="1.0" encoding="utf-8"?>
<!-- Generator: Adobe Illustrator 18.0.0, SVG Export Plug-In . SVG Version: 6.00 Build 0)  -->
<!DOCTYPE svg PUBLIC "-//W3C//DTD SVG 1.1//EN" "http://www.w3.org/Graphics/SVG/1.1/DTD/svg11.dtd">
<svg version="1.1" id="Layer_1" xmlns="http://www.w3.org/2000/svg" xmlns:xlink="http://www.w3.org/1999/xlink" x="0px" y="0px"
	 viewBox="0 0 60.3 48" enable-background="new 0 0 60.3 48" xml:space="preserve">
<path fill="none" d="M0,0h60.3v48H0V0z"/>
<path fill="#FFFFFF" d="M40,36c2.2,0,4-1.8,4-4l0-22c0-2.2-1.8-4-4-4H8c-2.2,0-4,1.8-4,4v22c0,2.2,1.8,4,4,4H0c0,2.2,1.8,4,4,4h40
	c2.2,0,4-1.8,4-4H40z M8,10h32v22H8V10z M24,38c-1.1,0-2-0.9-2-2s0.9-2,2-2s2,0.9,2,2S25.1,38,24,38z"/>
<path fill="#FFFFFF" d="M57.7,26h-8c-1.4,0-2.5,1.1-2.5,2.5v17c0,1.4,1.1,2.5,2.5,2.5h8c1.4,0,2.5-1.1,2.5-2.5v-17
	C60.2,27.1,59.1,26,57.7,26z M53.7,47c-0.8,0-1.5-0.7-1.5-1.5c0-0.8,0.7-1.5,1.5-1.5c0.8,0,1.5,0.7,1.5,1.5
	C55.2,46.3,54.6,47,53.7,47z M58.2,43h-9V29h9V43z"/>
</svg>
