<?xml version="1.0" encoding="utf-8"?>
<!-- Generator: Adobe Illustrator 18.0.0, SVG Export Plug-In . SVG Version: 6.00 Build 0)  -->
<!DOCTYPE svg PUBLIC "-//W3C//DTD SVG 1.1//EN" "http://www.w3.org/Graphics/SVG/1.1/DTD/svg11.dtd">
<svg version="1.1" id="Layer_1" xmlns="http://www.w3.org/2000/svg" xmlns:xlink="http://www.w3.org/1999/xlink" x="0px" y="0px"
	 viewBox="23.1 75 739.5 487.5" enable-background="new 23.1 75 739.5 487.5" xml:space="preserve">
<path fill="#FFFFFF" d="M523.1,450c27.5,0,50-22.5,50-50V125c0-27.5-22.5-50-50-50h-400c-27.5,0-50,22.5-50,50v275
	c0,27.5,22.5,50,50,50h-100c0,27.5,22.5,50,50,50h500c27.5,0,50-22.5,50-50H523.1z M123.1,125h400v275h-400V125z M323.1,475
	c-13.8,0-25-11.3-25-25s11.2-25,25-25s25,11.3,25,25S336.9,475,323.1,475z"/>
<path fill="#FFFFFF" d="M731.4,287.5h-100c-17.5,0-31.2,13.8-31.2,31.2v212.5c0,17.5,13.8,31.2,31.2,31.2h100
	c17.5,0,31.2-13.8,31.2-31.2V318.8C762.6,301.2,748.9,287.5,731.4,287.5z M681.4,550c-10,0-18.8-8.8-18.8-18.8s8.8-18.8,18.8-18.8
	s18.8,8.8,18.8,18.8S692.6,550,681.4,550z M737.6,500H625.1V325h112.5V500z"/>
</svg>
