<?xml version="1.0" encoding="utf-8"?>
<!-- Generator: Adobe Illustrator 18.0.0, SVG Export Plug-In . SVG Version: 6.00 Build 0)  -->
<!DOCTYPE svg PUBLIC "-//W3C//DTD SVG 1.1//EN" "http://www.w3.org/Graphics/SVG/1.1/DTD/svg11.dtd">
<svg version="1.1" id="Layer_1" xmlns="http://www.w3.org/2000/svg" xmlns:xlink="http://www.w3.org/1999/xlink" x="0px" y="0px"
	 viewBox="23.1 111.3 800 527.3" enable-background="new 23.1 111.3 800 527.3" xml:space="preserve">
<path fill="#ACACAC" d="M564,517c29.7,0,54.1-24.3,54.1-54.1V165.4c0-29.7-24.3-54.1-54.1-54.1H131.3c-29.7,0-54.1,24.3-54.1,54.1
	v297.5c0,29.7,24.3,54.1,54.1,54.1H23.1c0,29.7,24.3,54.1,54.1,54.1h540.9c29.7,0,54.1-24.3,54.1-54.1H564z M131.3,165.4H564v297.5
	H131.3L131.3,165.4L131.3,165.4z M347.6,544c-14.9,0-27-12.2-27-27c0-14.8,12.1-27,27-27s27,12.2,27,27
	C374.7,531.8,362.6,544,347.6,544z"/>
<path fill="#ACACAC" d="M789.3,341.2H681.2c-18.9,0-33.8,14.9-33.8,33.8v229.9c0,18.9,14.9,33.8,33.8,33.8h108.2
	c18.9,0,33.8-14.9,33.8-33.8V375.1C823.1,356,808.3,341.2,789.3,341.2z M735.3,625.2c-10.8,0-20.3-9.5-20.3-20.3s9.5-20.3,20.3-20.3
	s20.3,9.5,20.3,20.3S747.4,625.2,735.3,625.2z M796.1,571.1H674.4V381.8h121.7V571.1z"/>
</svg>
