<?xml version="1.0" encoding="utf-8"?>
<!-- Generator: Adobe Illustrator 23.1.1, SVG Export Plug-In . SVG Version: 6.00 Build 0)  -->
<svg version="1.1" id="Layer_1" xmlns="http://www.w3.org/2000/svg" xmlns:xlink="http://www.w3.org/1999/xlink" x="0px" y="0px"
	 viewBox="0 0 800 527.3" style="enable-background:new 0 0 800 527.3;" xml:space="preserve">
<style type="text/css">
	.st0{fill:#ACACAC;}
</style>
<path class="st0" d="M766.2,229.9H658.1c-18.9,0-33.8,14.9-33.8,33.8v142h-83.4c29.7,0,54.1-24.3,54.1-54.1V54.1
	C595,24.4,570.7,0,540.9,0H108.2C78.5,0,54.1,24.3,54.1,54.1v297.5c0,29.7,24.3,54.1,54.1,54.1H0c0,29.7,24.3,54.1,54.1,54.1H595
	c10.8,0,20.8-3.2,29.3-8.7v42.5c0,18.9,14.9,33.8,33.8,33.8h108.2c18.9,0,33.8-14.9,33.8-33.8V263.8
	C800,244.7,785.2,229.9,766.2,229.9z M108.2,54.1h432.7v297.5H108.2V54.1z M324.5,432.7c-14.9,0-27-12.2-27-27s12.1-27,27-27
	c14.9,0,27,12.2,27,27C351.6,420.5,339.5,432.7,324.5,432.7z M712.2,513.9c-10.8,0-20.3-9.5-20.3-20.3s9.5-20.3,20.3-20.3
	s20.3,9.5,20.3,20.3S724.3,513.9,712.2,513.9z M773,459.8L773,459.8H651.3V270.5H773V459.8z"/>
</svg>
