<?xml version="1.0" encoding="utf-8"?>
<!-- Generator: Adobe Illustrator 18.0.0, SVG Export Plug-In . SVG Version: 6.00 Build 0)  -->
<!DOCTYPE svg PUBLIC "-//W3C//DTD SVG 1.1//EN" "http://www.w3.org/Graphics/SVG/1.1/DTD/svg11.dtd">
<svg version="1.1" id="Layer_1" xmlns="http://www.w3.org/2000/svg" xmlns:xlink="http://www.w3.org/1999/xlink" x="0px" y="0px"
	 viewBox="378 278 44 44" enable-background="new 378 278 44 44" xml:space="preserve">
<g>
	<g>
		<defs>
			<rect id="SVGID_1_" x="378" y="278" width="44" height="44"/>
		</defs>
		<clipPath id="SVGID_2_">
			<use xlink:href="#SVGID_1_"  overflow="visible"/>
		</clipPath>
		<g clip-path="url(#SVGID_2_)">
			<g>
				<defs>
					<rect id="SVGID_3_" x="380.3" y="280.3" width="39.5" height="39.4"/>
				</defs>
				<clipPath id="SVGID_4_">
					<use xlink:href="#SVGID_3_"  overflow="visible"/>
				</clipPath>
				<g clip-path="url(#SVGID_4_)">
					<g>
						<defs>
							<rect id="SVGID_5_" x="380.3" y="280.3" width="39.5" height="39.4"/>
						</defs>
						<clipPath id="SVGID_6_">
							<use xlink:href="#SVGID_5_"  overflow="visible"/>
						</clipPath>
						<path clip-path="url(#SVGID_6_)" fill="#FFFFFF" d="M419.4,311.3c1.4,3.3-2.6,6.8-3.4,7.5l-0.2,0.2h-0.2
							c-1.1,0.4-2.3,0.7-3.6,0.7c-8.5,0-19-10.2-20.3-11.4l0,0l0,0c-1.6-1.6-14.6-15-10.7-23.9l0.1-0.2l0.1-0.2
							c0.5-0.6,3.2-3.7,6-3.7c0.5,0,1,0.1,1.4,0.3c1.4,0.5,6,4.9,7,10.4v0.3l-0.1,0.3c0,0.2-0.4,2.1-2.2,4.8
							c0.5,0.9,1.7,2.7,4.6,5.5c2.9,2.9,4.7,4.1,5.6,4.6c2.7-1.7,4.6-2.2,4.8-2.2h0.3h0.3C414.6,305.4,418.9,310,419.4,311.3"/>
					</g>
				</g>
			</g>
		</g>
	</g>
</g>
</svg>
