<?xml version="1.0" encoding="utf-8"?>
<!-- Generator: Adobe Illustrator 18.1.1, SVG Export Plug-In . SVG Version: 6.00 Build 0)  -->
<svg version="1.1" id="Layer_1" xmlns="http://www.w3.org/2000/svg" xmlns:xlink="http://www.w3.org/1999/xlink" x="0px" y="0px"
	 viewBox="0 0 50 50" enable-background="new 0 0 50 50" xml:space="preserve">
<polygon fill="none" stroke="#000000" stroke-width="2" stroke-linecap="round" stroke-miterlimit="10" points="49,14 36,21 36,29 
	49,36 "/>
<g>
	<path d="M9.8,11H32c1.7,0,3,1.3,3,3v22c0,0.1,0,0.1,0,0.2l1.7,1.7c0.2-0.6,0.4-1.2,0.4-1.9V14c0-2.8-2.2-5-5-5H7.8L9.8,11z"/>
	<path d="M34.1,38.1C33.6,38.7,32.8,39,32,39H5c-1.7,0-3-1.3-3-3V14c0-1.7,1.3-3,3-3h1.9L5,9c-2.7,0-5,2.3-5,5v22c0,2.8,2.2,5,5,5
		h27c1.4,0,2.6-0.6,3.5-1.4L34.1,38.1z"/>
</g>
<line fill="none" stroke="#000000" stroke-width="2" stroke-linecap="round" stroke-linejoin="round" stroke-miterlimit="10" x1="1" y1="1" x2="49" y2="49"/>
</svg>
